<mxfile host="app.diagrams.net" modified="2024-04-25T03:25:04.170Z" agent="Mozilla/5.0 (Windows NT 10.0; Win64; x64) AppleWebKit/537.36 (KHTML, like Gecko) Chrome/124.0.0.0 Safari/537.36" etag="Hr1M2G3wqBslFLD9kiCA" version="24.3.0" type="device">
  <diagram name="第 1 页" id="RMNJwB3UrsAb3pEy16tl">
    <mxGraphModel dx="875" dy="464" grid="0" gridSize="10" guides="1" tooltips="1" connect="1" arrows="1" fold="1" page="1" pageScale="1" pageWidth="400" pageHeight="500" background="#F1F1EA" math="0" shadow="0">
      <root>
        <mxCell id="0" />
        <mxCell id="1" parent="0" />
        <mxCell id="Xxx18RUa-ldN1qxlRB1q-1" value="&lt;b&gt;&lt;font face=&quot;Helvetica&quot; color=&quot;#003870&quot; style=&quot;font-size: 18px;&quot;&gt;Sign up&lt;/font&gt;&lt;/b&gt;" style="text;html=1;align=center;verticalAlign=middle;whiteSpace=wrap;rounded=0;" vertex="1" parent="1">
          <mxGeometry x="157" y="22" width="87" height="30" as="geometry" />
        </mxCell>
        <mxCell id="Xxx18RUa-ldN1qxlRB1q-2" value="" style="line;strokeWidth=1;html=1;strokeColor=#96B6C5;" vertex="1" parent="1">
          <mxGeometry x="35" y="97" width="333" height="10" as="geometry" />
        </mxCell>
        <mxCell id="Xxx18RUa-ldN1qxlRB1q-3" value="&lt;font color=&quot;#96b6c5&quot;&gt;&lt;b&gt;Name&lt;/b&gt;&lt;/font&gt;" style="text;html=1;align=center;verticalAlign=middle;whiteSpace=wrap;rounded=0;" vertex="1" parent="1">
          <mxGeometry x="35" y="72" width="55" height="30" as="geometry" />
        </mxCell>
        <mxCell id="Xxx18RUa-ldN1qxlRB1q-4" value="" style="line;strokeWidth=1;html=1;strokeColor=#96B6C5;" vertex="1" parent="1">
          <mxGeometry x="35" y="153" width="333" height="10" as="geometry" />
        </mxCell>
        <mxCell id="Xxx18RUa-ldN1qxlRB1q-5" value="&lt;b&gt;&lt;font color=&quot;#96b6c5&quot; style=&quot;font-size: 12px;&quot;&gt;Email&lt;/font&gt;&lt;/b&gt;" style="text;html=1;align=center;verticalAlign=middle;whiteSpace=wrap;rounded=0;" vertex="1" parent="1">
          <mxGeometry x="35" y="128" width="57" height="30" as="geometry" />
        </mxCell>
        <mxCell id="Xxx18RUa-ldN1qxlRB1q-8" value="&lt;b&gt;&lt;font color=&quot;#f1f1ea&quot;&gt;Submit&lt;/font&gt;&lt;/b&gt;" style="rounded=1;whiteSpace=wrap;html=1;fillColor=#96B6C5;strokeColor=#96B6C5;" vertex="1" parent="1">
          <mxGeometry x="30" y="436" width="341" height="30" as="geometry" />
        </mxCell>
        <mxCell id="Xxx18RUa-ldN1qxlRB1q-9" value="&lt;font color=&quot;#bfbfbf&quot; style=&quot;font-size: 10px;&quot;&gt;Already a member ?&lt;/font&gt;" style="text;html=1;align=center;verticalAlign=middle;whiteSpace=wrap;rounded=0;" vertex="1" parent="1">
          <mxGeometry x="35" y="393" width="105" height="30" as="geometry" />
        </mxCell>
        <mxCell id="Xxx18RUa-ldN1qxlRB1q-10" value="" style="line;strokeWidth=1;html=1;strokeColor=#96B6C5;" vertex="1" parent="1">
          <mxGeometry x="33" y="207" width="333" height="10" as="geometry" />
        </mxCell>
        <mxCell id="Xxx18RUa-ldN1qxlRB1q-11" value="&lt;font color=&quot;#96b6c5&quot;&gt;&lt;b&gt;Mobile Number&lt;/b&gt;&lt;/font&gt;" style="text;html=1;align=center;verticalAlign=middle;whiteSpace=wrap;rounded=0;" vertex="1" parent="1">
          <mxGeometry x="33" y="182" width="107" height="30" as="geometry" />
        </mxCell>
        <mxCell id="Xxx18RUa-ldN1qxlRB1q-14" value="" style="line;strokeWidth=1;html=1;strokeColor=#96B6C5;" vertex="1" parent="1">
          <mxGeometry x="35" y="261" width="333" height="10" as="geometry" />
        </mxCell>
        <mxCell id="Xxx18RUa-ldN1qxlRB1q-15" value="&lt;b&gt;&lt;font color=&quot;#96b6c5&quot; style=&quot;font-size: 12px;&quot;&gt;Address&lt;/font&gt;&lt;/b&gt;" style="text;html=1;align=center;verticalAlign=middle;whiteSpace=wrap;rounded=0;" vertex="1" parent="1">
          <mxGeometry x="35" y="236" width="74" height="30" as="geometry" />
        </mxCell>
        <mxCell id="Xxx18RUa-ldN1qxlRB1q-16" value="" style="line;strokeWidth=1;html=1;strokeColor=#96B6C5;" vertex="1" parent="1">
          <mxGeometry x="35" y="315" width="333" height="10" as="geometry" />
        </mxCell>
        <mxCell id="Xxx18RUa-ldN1qxlRB1q-17" value="&lt;b&gt;&lt;font color=&quot;#96b6c5&quot; style=&quot;font-size: 12px;&quot;&gt;Password&lt;/font&gt;&lt;/b&gt;" style="text;html=1;align=center;verticalAlign=middle;whiteSpace=wrap;rounded=0;" vertex="1" parent="1">
          <mxGeometry x="35" y="290" width="82" height="30" as="geometry" />
        </mxCell>
        <mxCell id="Xxx18RUa-ldN1qxlRB1q-18" value="" style="shape=image;verticalLabelPosition=bottom;labelBackgroundColor=default;verticalAlign=top;aspect=fixed;imageAspect=0;image=data:image/png,iVBORw0KGgoAAAANSUhEUgAAAgAAAAIACAYAAAD0eNT6AAAAAXNSR0IArs4c6QAAIABJREFUeAHt3Qe4NEtZJ/CXdMmI5HQFBS4ZQXKOAkoSVkEUEQFRQQQUFhZcBEUlquQsUZEgICCIsCKuoIAIkgQk53jJXKK758+ecefOPd930sxUVc+vnud7zsz55nRX/ertqp7u6qoqiQABAgQIECBAgAABAgQIECBAgAABAgQIECBAgAABAgQIECBAgAABAgQIECBAgAABAgQIECBAgAABAgQIECBAgAABAgQIECBAgAABAgQIECBAgAABAgQIECBAgAABAgQIECBAgAABAgQIECBAgAABAgQIECBAgAABAgQIECBAgAABAgQIECBAgAABAgQIECBAgAABAgQIECBAgAABAgQIECBAgAABAgQIECBAgAABAgQIECBAgAABAgQIECBAgAABAgQIECBAgAABAgQIECBAgAABAgQIECBAgAABAgQIECBAgAABAgQIECBAgAABAgQIECBAgAABAgQIECBAgAABAgQIECBAgAABAgQIECBAgAABAgQIECBAgAABAgQIECBAgAABAgQIECBAgAABAgQIECBAgAABAgQIECBAgAABAgQIECBAgAABAgQIECBAgAABAgQIECBAgAABAgQIECBAgAABAgQIECBAgAABAgQIECBAgAABAgQIECBAgAABAgQIECBAgAABAgQIECBAgAABAgQIECBAgAABAgQIECBAgAABAgQIECBAgAABAgQIECBAgAABAgQIECBAgAABAgQIECBAgAABAgQIECBAgAABAgQIECBAgAABAgQIECBAgAABAgQIECBAgAABAgQIECBAgAABAgQIECBAgAABAgQIECBAgAABAgQIECBAgAABAgQIECBAgAABAgQIECBAgAABAgQIECBAgAABAgQIECBAgAABAgQIECBAgAABAgQIECBAgAABAgQIECBAgAABAgQIECBAgAABAgQIECBAgAABAgQIECBAgAABAgQIECBAgAABAgQIECBAgAABAgQIECBAgAABAgQIECBAgAABAgQIECBAgAABAgQIECBAgAABAgQIECBAgAABAgQIECBAgAABAgQIECBAgAABAgQIECBAgAABAgQIECBAgAABAgQIECBAgAABAgQIECBAgAABAgQIECBAgAABAgQIECBAgAABAgQIECBAgAABAgQIECBAgAABAgQIECBAgAABAgQIECBAgAABAgQIECBAgAABAgQIECBAgAABAgQIECBAgAABAgQIECBAgAABAgQIECBAgAABAgQIECBAgAABAgQIECBAgAABAgQIECBAgAABAgQIECBAgAABAgQIECBAgAABAgQIECBAgAABAgQIECBAgAABAgQIECBAgAABAgQIECBAgAABAgQIECBAgAABAgQIECBAgAABAgQIECBAgAABAgQIECBAgAABAgQIECBAgAABAgQIECBAgAABAgQIECBAgAABAgQIECBAgAABAgQIECBAgAABAgQIECBAgAABAgQIECBAgAABAgQIECBAgAABAgQIECBAgAABAgQIECBAgAABAgQIECBAgAABAgQIECBAgAABAgQIECBAgAABAgQIECBAgAABAgQIECBAgAABAgQIECBAgAABAgQIECBAgAABAgQIECBAgAABAgQIECBAgAABAgQIECBAgAABAgQIECBAgAABAgQIECBAgAABAgQIECBAgAABAgQIECBAgAABAgQIECBAgAABAgQIECBAgAABAgQIECBAgAABAgQIECBAgAABAgQIECBAgAABAgQIECBAgAABAgQIECBAgAABAgQIECDQg8A5quraVXX97X/XqKqz9JAxeSBAgAABAgcQSB+WvmzWr12rqs52gO1M7k9OV1W3raoXVdXHq+r/HOHfR6vqL6rqhlV18skpKBABAgQITEUgfdSNqup5VZW+62j92gur6jZVdZqpFH4v5Th1Vd2nqj57FJwjoX24qu5eVafay458hgABAgQIrEHgmKq6Z1V95AD92qer6l5VlW1MOl2+qt53AKDFE4J3VtVlJi2lcAQIECAwgsCPVdW7l9Cv/XtVXW6EAh8kj79YVd9aAtLsZOCEqrr1QTLibwgQIECAwBIEcgn/m0vs19JH3m4J+epqE3etqv9cItLsJOB7U8TqquZkhgABAgR2Erj9ivq19JW/utMOR/zdzasqHfWs0172z+9U1U1GhJFnAgQIEBhS4KZV9d0V9mvZ9vD92rFVdfwKkWYnE1+rqisOGUYyTYAAAQIjCVypqr6+hn7t81V1npFgFvP6/DUgzU4CPlNVF1zMgPcECBAgQGBJAhc64BNss35qvz+fu6R8r30zF13R/ZGjAb6/qjKhkESAAAECBJYpkAl83rvGL7Xp6zIe4LhlFmJd23rUmqFmJwZvqqrTr6uQ9kOAAAECkxc4bVW9oVGf9vDRdDPZzzru/c86/cWfL6mqU4yGJr8ECBAg0J1A+pKXNur807dlLMBQk99doSHW7GTgSd2FkQwRIECAwGgCj+mgPxtq4rs7dwCWE4FMOSwRIECAAIGDCNy/k77sDgfJfKu/aXX/f/btf/YzAygmN6tSq0q1XwIECGyQwKom+pn1T/v5+ccjuefy+34Kt8rPZkIFUwaPFD3ySoAAgbYCt6yqTDK3yr5pP9t+fFuO/e29pxOAIH+7qm68vyL4NAECBAhsoMANljy//346+iN99rEj1UMvtwDmMb9RVdceCVFeCRAgQGCtAtfdGjuWhebm+44eXj9yrQqH3NmdOgRMJWbK4Ksfsmz+nAABAgSmJ3DlqvpKp31XxiMMk360U8ScBHxp65nOrN8sESBAgACBCFy6qr7Qcb91yZGq6ZRV9cWOMbNuQKYqlggQIEBgswUutub5/fd7SyEnJsNNbNfbQMBF9I9V1Q9vdtwrPQECBDZaIAvIfaLjL6vptx43Yg1dvKq+1znsB6rqfCPiyjMBAgQIHEogy9V/qPM+Ko+xX+RQpWz4x8/oHDdnVzkJuEBDI7smQIAAgfUK5Opv751/+qenrZdluXs7e1V9eoCTgI9UVdZ5lggQIEBg2gJZXvejA/RLn6qqLEE8dMpzlT3NqLQ4FmD2PveBDAwcOtRkngABAkcVyK3pTw7Q+afPvM5RSzLQf/Y6L8Cs85/9zNMBeRxEIkCAAIFpCYzS+WcNmztOi77qDwc468qJwPFVdcWp4SsPAQIENlggc798bpA+6AFTrKeTVdWzBqmAzGGQWaEkAgQIEBhb4PKdT/IzuwKdn08dm/rouT9mayre1wxyEpBpgydzD+bo1eJ/CRAgMEmBa3Q8ve98x5/Xf11VmURv0ukHqurtg5wEfL2qrj/p2lA4AgQITFPgWlX11UH6mjdX1RmmWQ0nLVWeu88jDotnQD2+/2ZV3eqkRfAbAgQIEOhU4BZVlRVge+xTFvOUuWjO2anjyrJ1qe0Bd4sYPb7PbEx3XZmEDRMgQIDAsgTuNsAstLN+LgMTMy/BRqarVFUus88wev/5qKo6+UbWlEITIECgb4EMNH/gQP1JrlCkD9zodNNBJgqanZw8u6pOtdE1pvAECBDoSyADzJ8zUOefq8o/1Rdhu9z8UlVl8oNZJ9v7z1dV1RnbcdkzAQIECGwLnKmqXj1Q/5H+7ZfV3okFct+m945/Pn95kuG8Jy6CdwQIECCwRoFzVdW/DtZ33HeNPkPt6qGDVWRWk7J+wFAhJrMECExEIAu4/cdgfcaDJ2K/kmJkEMeTB6vQjOI0a+BKwsFGCRAgsKPAVavq84P1FY/ZsSR+eSKBjLJ/5mAVmycZbnmiUnhDgAABAqsQ+OmBnvGf3TZ+RlXlC660B4FTVNWfDXYSkEGMeQRFJe+hgn2EAAEC+xRI23qfgZ7xn3X+L96EKX73WZe7fjwnAX8x2ElAKvx5VXXaXUvnAwQIECCwV4HTVFUewZ51qqP8fGVVnXqvhfS5EwvkefuXDljpGZV67ImL4h0BAgQIHEDgPFX1pgH7gb+pqpy4SIcQCGCeux/ljG+Wz49VVZahlAgQIEDgYAJX2npm/hMDtv86/4PV945/dbqqeu2AQXBCVd1+xxL5JQECBAgcTeBOVZXF2GZfqkb5+bduAx+tWg/2fzkJCOwoQTCfzydVVaaqlAgQIEDg6AK5Z551V+bb0FFe/0NVnf7oxfO/BxXI4LoMqhglGObz+Y9Vde6DFtzfESBAYAMEcr//DYO28a+pqnxRlVYokLPDEQcG5mQg97KutkIbmyZAgMCoAteoqk8N2vn/tQF/6wu7PB3wwkED5TtbTJkvwLLC64sXeyJAoF+BPN9/96r69qBt+st0/usPrswT8KxBAyZXAxI0Z1k/mz0SIECgG4GzVlW+Pc/fLh3pdeZ9sTx8o3DKScDTBw6ej24NbMyc1hIBAgQ2TeAKVfXBgdvvzFZ7yk2rtN7Km0vpTxw4iL5VVfc0hXBvYSU/BAisSCCX/O898CX/XKF4vNu4K4qOA242c0SPdOloMa+v3loJMSNgJQIECExV4ByDX/JPu/2QqVbO6OX69QEXipg/EfhsVd1k9EqQfwIECOwgcIOBR/mnnc6Cb/faoVx+1ZHAzw1+aSlBlomDPE/aUVDJCgECBxbIdO6Z2Cdt2/wXnpFef7eq7nBgAX+4VoGf3LrH9PWBgy0Hxr9V1aXWqmZnBAgQWK7ApavqHYO3xd+oqpsul8XWVi2Q0fXHDx54mQf7vlWVpx0kAgQIjCKQ0fH3q6oMch7pm/5iXr9YVdccBV0+TyxwyUFXkloMwkyNedyJi+YdAQIEuhS4aFW9cfCOP23wR7YmnEsfIg0skJH1/zqBYMxlqDzpYAbBgYNR1glMWCCP9915a6Dc1ybQ3r69qo6dcF1tVNHOVFWvmkBQ5qw0yyJfcKNqT2EJEOhd4MJVlZXwFq9ejvg+fcUZeweXv/0J5D764yYSoLkakPUETEG5vxjwaQIEliuQe/2Zx38K3/pzsvIM7epyA6S3reUy+siPo8yfUb+lqi7bG7D8ECCwEQKXq6q3TuRLVfqEfKnKbQxp4gL/raryLXq+Mx31dVYXzDO2p594nSkeAQJ9CJx2KxvpLEddvW+xrc/TVrfrg1Yu1iVwlarKzHuLwTDq+/+oqhuuC89+CBDYSIGfqKr3T6jd/HRVXXkja1Khvz+Y7p0TCuacvLzQ6FWRTYDAkgXOX1Uvmlhb+baq+qElO9ncYAJn2O40R/3mv1O+MwtiLtGderC6kF0CBPoSyEDjDPL76sQ6/1dUVZ4Okwh8f+DH70xocODspODdW4/mXFf9EiBA4AAC16+q90ys40/b+FDzqRwgGjbgT25cVV+aYMC/zNwBGxC9ikhgOQIXqqrnT7AdnH0xuuNymGxligIXr6r3TTD4M9L1YVX1A1OsNGUiQODQAmkbHjGB+ftnHf2Rfp5QVZc5tJYNTFYg94b+aoInATkgPr99Ty8TeEgECBDI9OJ5DC4j4o/UaU7t9292G0DgH00gMwfmXtFUJg1aPIAz1/WNjgbg/wgQmLxAHusbfbnexbZtr+89+z/58D58AbMO9BcmfGb8estdHj5IbIHAYAJX2jru/27C7dpeTgI+VFXHDFZvsttAIM+KZknevQTVqJ95dVX9aANbuyRAYH0CGeOUAX5TvbK53/b3Tuujt6eRBXLP/CETP3C+t904WG1w5EiVdwInFciXmCdV1Xcn/kVmvycAHzFfykmDxW+OLHDzqjp+4gdR5vh+VlXlcSCJAIFxBTKDX9YKyVNA++0cN+Xzdxm3euW8hUAOqn/egANqdiKQtb4lAgTGEbiAjn/PJzyf3BrwnQWOJAJ7Fsg0uzmz3oSz5NmJwHF71vFBAgRaCPzw9qX+rBK6CW3Tssp4jxaVZZ9jC1xnw+6ppVHJrYFLjV1tck9gcgIZwPucDWuPltX5ZzuZA8GS6pM7LFZXoHNWVS4dLTMIR9rWP1ZVHpE82eqIbZkAgV0Erl5VmerbqP7Dt8X33sXafxP4vkCeCHjdBnf+8ycqb92eRczMgg4OAusRyMx9Ofl+ozZoqV/AMkvqGddThfYyskDm1J/vBL2u+uD2FMPWGhg5suW9Z4EzV9U9q+rD2p+Vtb/37zkA5K29QM68XW478glQ1g3P88bGCbSPVTmYhsBFtgcc59jyZWO1Bl/csv7BaYSNUixbIBPkJEAchHszyDiBn6kqtweWHYm2N3WB2WX+zNDpC8fe2ptltcsPmnpwKd/+BU5TVf+q8z/QyU9m27pfVZ1n/+z+gsBGCZxvayT/b1fVR7U1B2prlnES8OWqOutGRZ3C7irwVAfkoQ/ITDWcbzS5KnCqXcV9gMBmCGTl0etvT8Pt+f31fts/0gnDH2xG6CnlXgRur/M/dOe/eKDludsMprzoXirAZwhMUCAL8zyyqj6jfal8OXhiR49WZ7zFOSYYc4q0T4FLV9XXHaBLPwGYPyHIWIFfc9ltn5Hp4yMKnL2q7roBq4vOH9+7vX5HVV11uzLv1lFb+4gRA0yelyeQZ0L/vaOA3O1AGv3/s1JZbhHczvO4ywtiW2oukHnmc9srE/ZkWu3Rj9Nl5f8bWzXzwIXV+DLFei/jH06oqvM2jx4ZaCKQGe5e6GBt1lh9rar+rKpuYrxAk/i308MJHLM9Wc9zXUHcsQ3526OsNvqrHbW7jz5cGPjrUQV+s6MgXNYZ96jbyaOXz3dlYNRDaWPynW/6mSck62V4XHjnKx1f2LrPf+ddphDPAOEPdNL+ZhnlYzcmghX0+wJXrqpvdRKAo3baq8p3LsvlUmoakazHIBFoKXCW7RPTnKCaqGfnTj9tQeYyyInR2fZYWXfoqP19wh7z7GMTEMggnY91FHyr6kinsN08MpUxA1nKM7OlSQTWIZAnVzIl7/+qKo/tHbnTn7Ux76yqa+2zYjJ52Ps6aYfzZTDLLEsTF8jsW6/qJOhmB4+fuzcwM6OsR5BpiDPgypoEEz9Y11i8020/p/+oqvqQ9mHHe/qzY3D+Zy733/0QM4H+QkfWT1tjvNlVI4Hf7Sjg5g8kr/d+EjCzyr2711TVvarqslWVkzuJwF4EMjHPj20N3svysPmW73bg/o6/POmQk6XDzqmfenh3J21yrvRceC/B4zNjCtyo6vuTUcw6kJ5+Zgria1bV/+7kYOjJZq95yaCsl1ZVBnderqrSuEgEIpBYuPzWPfzf2h5fYgDf/jr8+WPwFUue3OvWHbV5z3a4TFPgh7Ym5/hcR4E2f0ClMfqROfZbdnRvbD6fo73+0nZjnysEV6mqrPUgbYZARutn4pl8w3/51v38zP0+Wvz2lt/Ml/ITKwifXLl7eyf1k3lKLraCMtpkQ4E8cvL6TgJs8aDOyNlb7GCTPGcUvClEl9dw5xLfu7ZHKsf2Em4b7BB5Y/4qi1BlXEguS2fWydweWjzWvD+YyfFVdZ+qyrwHq0ppA3upn79YVSFtt41AJnroJbgW8/HQXUjOXFUP16CtrP7SuP3N1iXi39vuQI5z62CXiGz737mUn6dB0tk/eHtAr8v5q2nfMi7iMWuavjuTsr2lk3Y6axZkenhpAgI93V9a7Pxft4/Rs3lEJWem1g1fTWM3XzdZF+JNW1OEPqWqMm/5tZcw2GkCh9Lai5Dn769TVb9RVVmp881Vlall5+vK6+V75ErZ06vqAmuu8Rt3VLcvXnPZ7W4FAvk21+u9v6yUl8uW+02X3J4xz4nA8hu+3TqTXC34l23/zG+eb6EZbHj6/Vaiz/+XQC4rZ/xLlsrN42R5xDPzPmSWODG+3hiPdyY7ajnfxj91chIQiyv8V5R6MZxAGuVMTrFbo97i/3OGnW+Vh0lXMp9BN3WbS4aZnyDzSzx5q+N6wNaz5L+49UTH9bYb0wxI29SUsqdDiUWW3I5Nrqxknvg8bx+7FsegfZ7Y/a86uex9g47iIYNHpUEFntNRIC02NvddounVt2bgem3HZV0s+6a+zxMoedQzjynmcvbvb880l4lQMrI6VxIyH/kIJwvJY/KaPCfvKUNmzUuZUraU8a0dP3WzqTG4U7lzIpYvEz2lf+ioPcuU8dJgAj2tNLV40KVxzICXZafrbo9+Xtyf9yf+pjOCR1ZJzFTV792+5ZCJahI3GQOSS+RZw/xB2yOzMzr7LttPjOTJhvy7zfbtidyiWPz3cwufzd9mG/mXSbKy7ewj+8p6DNl3bnskL8lT8jaCoTwevZ7ypMR+p+5ddpt1pO3l6mgv9ZcTJGkggUz20esjQLlMfNiZs3arikx29IaODqBeDmT56KdRVRft6iIDj9NG9J5y4tlLnFyjdyz5+38C6VzTyfYSOPP5yElJLpmuK+XWQL7BGUjVZzzMx4bX6miVMZBxFmkLMjHSKCl5XaXJfrad2VmlzgVyWT2PbuynYtf52VyabZEutT3xTQYerrO89sVbDLSNgTzHn+V5L96i4VnCPjM/Ry8xlFusUscC9+soWBaD9s87cMszvZklLc+4L+bPeyZiYDox8NXtYz0DNUdOuWLayxXMzCQrdSqQQSOZw7nHRuwdnT0nfratOswz7FnGs0cveVIvYuBgMfDZ7WM7EyhNJWXway/xMMLYianU+57Lce6qyqQ6vQTJfD6+suRVs/aMsocPnmHLLU9L5ARlPs9e8xADY8VAntDIsTzFxa4u09FVgMwOuoonuPbQXPvITgKn3JoqNKNae22wbrtTpjv8XS615V5h1vju1VK+1I0Y+P8xkIF9mTExj3lOfdnrF3bULt2sw/Z7Y7OURXJ6bRT+ZMBaydWUPA/+8Y5de61v+er3WJxS3WRq88zTsElL1mbVzl5mjMyyxVm+WGoscPOOLg0tNjCZz3qVS2eumv7U27O7vdGJQLcnmIsx5/20T0D+uaruUFWnW/XB3+n2M5C6lxj/6U6NNiZbF9xaOKTXJUAz5evoo2/nAykTKz1+a0W2LITTywEoH+piE2IgbdxjO5mjf75NaPE660n0MtA7a8y4CtAiCrYHumRO9R4bgFymumEjl1XvNgOMfnZ7wZteLsf1GAPy1OexOUq95LG3TDyTxaQ29dv+kdqyZ3TU7mdKbamBQBYb6fVgzuN1m5CyjHHGCryv47roNUbkq9/jt2XdZJ2Fh1TVhTehATlgGTOXSSY3allPs32n7csgdGmNAjkrnlVAbz+zaMSmXRbKIzGZJ/tPqyqTj/RWJ/KjTnqOgTwm/PTtRXk8Xra3jiRLSfdSp+mPpDUJXLrjWexy9n72NTn0upvTV9Wtq+ovq+obHR2kvTQW8tFPw92yLk7Yuqf/oqq61SBLP/fW3py/o6sAH9haAvtUvQFNMT+ZtObfO+1U8uz81aaIfogyZb34m27PLWD5WB1fyw63h31n8FqW37371qC+zMQpHU4gg5J7qNfk4U6HK4q/3k0gl8Ze0FGFLwZeDmrpyAJnrKqfr6qXbI0byLefRT/vmUwxBrL65yu2O4hNvzp45NbhYP9z3o7ako9UVR6bllYkcI+OO42cmEh7FzhTVWV2xFwCNWZAxz+1jj9Xu9Im3KaqEuvS6gT+uKN+4a6rK+ZmbzlrQvc6PW3m33aQHzw+c9b841WVA9nTBE4GRj0ZyDfAJ1TVTdzTP3hjcIC/PGdHY8I+MdF1GA5QLcv7k1w2y+C6HhuGXMrOIhXS8gR+pKruXFUvq6pcPu2x3uVJveR+/r9shX0e+c0aGkbvL68N2O+WHtZRO5Er1dKSBPI4XR6r67XBvd2SymkzOwtk3MAtqypzPny04zjoNT7la7ltxwe359/PwjtTWmp356NvnN9mQGUepewh3rMibZ6EkpYg8KBOKnWnwHryEspnE/sTyNTPd9x+qqDXq0I7xYrf9dE477cevlBVWYEuS+wm9qR+BR7cUV/x3/tlGidn1+tozufFhuNt7vN1EUiZiTDfxrIq2oc6agAW48X7MU4APrN96ymzW+ay/qZN6NXFQX3ATJy5o3VKPl9VuXopHVDgh6oqi+n02HBmYY7cp5b6E7jQ9hWCTMzRY+zIU3/1kljJmJNNWla3vyN3OTl6QEfH/W8vp0ibt5XMqJTJMnpsLLNAxy02r0qGK3Gvk0X1GNObnqd3DxfdMnwkgTyNlds2PcR0vij+4JEy6vdHFnhMJxW4UxBlkQ6pb4FcerNKYR+N4E7HUG+/S6x4jLfvY3o/ufsfHfUfGcMm7UMg82L31kDM8vP3Vn3aR022++h1Oo6hWSz52ddxfq124WrPSxbICPyM5ejhGMskZ2Z/3GMFH1dVX+6k4haDJ492ZMCZ1L/AvTuNocWY8r6PRjr1cK/+w1oO9yGQ+uzl+PqDfeR7Yz+as7Z3dlRp88GTCT+uv7E1M17Bn9dpHM3HlNf9NNCpi+eOF+ZyfBSB02ytvfDxTtqBTAt9jqPk1X9V1TM7qaydGuY8EiSNI9DyCYDcTz7r9tWiPEaWlRAzwjxjR561tVrkq7ceW3zXhq1/8K0tg09uz5qX2R3zyGaOqUyilRPrS1TVuRqP23j/OOEtp3sU+I2O+pRH7DHPG/mxTLKxU8fbw+9eaorPoWIys7PlSY1WsbOfEeUZrHiBqrpCVd1oe6XENFoZOPTY7W+lmQUzT8S8papyYpOONKOL112+7DP7Th6Sl+Qpecs35+Q1eU7es9pjypIypWz7eRa65ZMbiRkz+w11qO+a2VwF6GWysG9snfiee9ccb+AHLt/xfO+Z9tNjHGMFZRYVWnfnOL+/fMtfVzrd9tWGzEmRf1mTIlcdZv+utv0NO9+y8y82+Td7n59ZZGv2+fzMNmbby5WM7GNd6dmN6y420rQEevpy+ehp0R6+NOlcW16unW+4F19nEZo0iNJYAvdv3IncbSyurnJ798Z1l8fHpGkJZE6ZXvqY9CnHTov34KXJylkvbnzAL3b68+9z31YaT+BFjWPqKuORdZPjXLGYPwbX/fovu5GQkWUKZO2QdcfSkfb3xGUWbORt3a+jSlkS2f1KAAAUhElEQVSsrD8fGXbD897ynt93rA9xqOjL7YYYLh6P63r/kUPl3h/3KnCKqnpPw7iaj99vm0a+6tqND/T5Cll8/Q5LOfZ6HO+ar3M2PsjfumsOfWA3gX9rXId5GkGansAvNI6r+X7madPj3XuJ0khnNPE8SC+vM2uTBUH2Xpe9ffImjePqKb2BDJifNI4t24MbD2gmy7sL5CpAntBpGVuzfWdemYvsnuXpfeKUVfW6TiphVhnzP/MIkzSuwAMbx9avjEvXTc5/rXEd/k43EjKybIFbN46t+b4mT7xsXHpYRxUwXxl5/ScbVxvTK/DLG8eXp0YOH1OZP2Dx2Fzn+0xUJE1TIAPP39Y4vmaxnKsAG3W1OTOitZygZQa/0883VtUx04z5jSrVpxoe3Jnt7tQbpb2awuY4zONSOx2n6/hd1vyQpitwy4axtRi/mbJ8I9L5O1qjebESsnZ0ZiyTxhbI87WLdbvO928am6+r3P9L47o8X1caMrNMgVwFyLG6zrbhSPvKF+IfXWbhetxWpmPM1KFHQmj5+8zbnmlLpfEFWp/ZP258wm5K8ITG7cVPdSMhI6sQaD1YeL7Py7wlk04ZGT1f4J5eZ9CYNA2B328cZ3eYBmMXpbhT47p8cBcKMrFKgX9qHGOzfjBXATLuZZIpo+pnBe3t52uqKo+GSNMQyMI0LWPsUtNg7KIUuSzasi7/pgsFmVilwA0ax9h8fGfw8uRSGsSvd4Q8D57Z4s4+OfHNLVDu632+YawlzvOIq7QcgZyYt2w7Mi4oMSVNW+DvG7YZ8/1RXl95StRnqKqWS3su4s6/z1SMmXNcmo7ABRsfyFkaV1quwBsa12lWRJSmLXD1xjE23y/lCuZk0gs6gp1HzuusOCZNS6D1BB9/PC3OLkrzqMZtyK26UJCJVQv8XeM4m++frrXqwq5j+62X9JwHXXz9/HUA2MfaBVpPMJV5xqXlCtyuccOcmJKmL9B6Bcr5Piq3JIZOl6yqExofuPOg86/fW1VnGlpX5o8k8NrGMbdRM3odqRKW/PuLN67TfDOUNkPglY1jbb6fut7I5K0b4nnI+dcZUGSU9siRdeS8n7yqvtzwAM6+kwdpuQIx/Yp6XS6qre0ocMWOZql9/Y45HOCX1294sM539ju9zuVEaZoCF20cdznplVYj0HqU9kau2Laaqux+qy9t3I7M91vX7l5rhwy+pCPAecwn75BXv5qOwG0bx93Dp0PZXUke0bhurQ7aXUisLEOX7egqwAtXVsoVbfiMjRfwmO/w519nCuJMRSxNVyCrOM7X+bpf5wkEaTUCP9u4bq0Qupp67XWr6XjX3X7stL9vVFUepR8m/XgncPOYX6wqz/IOE0IHzmiewZ+v93W/zhwE0moELtS4bs3vsJp67XWrGcSe9WHW3YbstL/MVDhM+vVO0GaQmV/5ZsPoyehBBTL7nhnjDqrX/99lNr7jG7YtXzNdeP9BsuQc/nnDeJv1X/l53yWXa6Wbe0wnaDPAh660tDbei0Ce7JjVeYufk5q9q5dKXcjHqxvXsaeHFipk4m8z8PO7jWMubVlWxBwmPasDsFkHkJHD5mUfJnQOldFfahx3WYFQWq3AHzSu48SYtFkCz2wcc+nLsoruMClroc864JY/P11V5xlGTUYPK/D4xnFn3fjD1uDuf3/LxnWctk3aLIELVNW3Gsfdo0cif0hjrJx0fKeqhnx+cqSK7iyvb2ocd8d25jHF7PxQ4zp+4xRRlWlXgXwDb/llNn3qMOkOjbFSUfcZRktGlyFwTONHT3O1SVqPwGcati/frKpTr6eY9tKRQE48U/etTgKGmoMij9u1gsp+X2b97o4OnfVk5fIdxNx6Smovf924ri+nCjZSoOUtxvOPJv6RRgfpB6vqB0fDkt9DC/xKo3ibneg+8NAlsIG9CjyocV0n1qTNEzhvo8XtPjwi9QMaHKS5ROPsfMRoOXyen9og3madf37e+PBFsIU9Cty0cV0PNSJ7j6Y+tjeBFjONDnk7+ywNVu9yZr63IJ7ip97auFM41xRROy3TuRvXdWJN2kyBHOeZEGr+5H+Vr7868hXtP1wjVOYekDZT4LTbT32s8kA82rY/upnsTUv9sTW2LYt1/+2qSsxJmynw22uMvdzuGjblIHnvGrDeUVWnH1ZJxg8rcJU1xNhiJzD//kWHLYC/37fAixvX+ZX3nWN/MBWBPAWyjiuOeeT0VKOjXaKqvrzCg/VzVWUBltGj5HD5v9sK42u+oz/S6/sdLvv++gAC929c51nvRNpcgeOq6vMrjMH0mVn8ahLpGlWVexlHakAP+vssDHKFSQgpxGEEWk/VOdRKXYeB7uhvb7iC9mQ/7VBiTtpsgVwFyiqz+4mbvXw2feXVpkab0fnLvG/3/qrKco0SgXet4CDcy4Gaz2SlyQx4ldYrcNaGdZ56f+d6i2tvnQpcuqres8RYTB952U7Leuhsna2qDru8Yhrcp1XVmQ+dGxuYgsAZG6/Z/YEpIA5ahsz5sdcTtWV/LivEnWFQN9lersDptkbqP2r7y8Bh4ix940Z8mcjljSydms58r2BZjCEj/S+z3LqztcEFrrmPGNprrO3nc88b3G/k7D+/cd0n9iQCM4Fc5X7OPhcO+l5VvXKKl/xnKEf7mSmD71VVL92+jDK/4lJODj60DZrn+63qdzTJzf2/32rcCSR+pTYC925c97/Zptj22rlA5qnIINGcDOx0leqTVfXyrXFxabt+uPOyrDV7p9ye9OA0a92rnY0s8NzGnYAVJ9tFz3Ua130u2UoE9iKQRwczRb2+bS9aPkNgjwIZDLqfS/bL/Gwu351pj/n0seULxD51sMw63c+23rf8ItkiAQIECOxFIGfU+xlHsp/GfS+fffdeMukzKxVY5gjsvdT5/GcSexsxaGulNWjjBAgQOIDAjzf89peOwPTTB6i0Jf9J7rPOd8rrfn39JZfH5ggQIEBgDwKZgW/dDf78/n5jD3n0kdUK3KNxDNx3tcWzdQIECBDYSeAvGzf+V90pU363VoGrN46BF661tHZGgAABAt8XyCp889/I1/k6E8FYgKp9IGYSlu80jIMPtyeQAwIECGyWwNkbNvo50XjbZnF3Xdq3N46Fc3StI3MECBCYmMCNGzf6T52Y58jF+dPGsfATI+PJOwECBEYT+J3Gjf6vjgY24fzepXEsPGDCtopGgACB7gRe1rjRv3x3IpuboSs2joW/2lx6JSdAgMD6BTKf9joH/c3vK2tWZGpPqQ+B1MX8OiLzdbWO15/qg0EuCBAgMH2B8zXs/NOhvHn6xMOV8C2NY+K8w4nJMAECBAYUuEXjxv7xA5pNPctPbBwTN586sPIRIECgB4EHN27s79gDgjycSOCXG8fE750oN94QIECAwEoEXtW4sb/0Skplo4cRuEzjmHjlYTLvbwkQIEBgd4GTVdXnGzb2J1TVqXbPpk+sWeCUVfWNhnHxuTWX1+4IECCwcQI/0rCRzwDA12+c+DgF/qfGsXGBcajklAABAuMJ3KpxI/+o8cg2JsePaRwbP70x0gpKgACBBgIPa9zI/0KDMtvl3gR+sXFsPGRv2fQpAgQIEDiIwN81buQvdpBM+5u1CFyicWy8Zi2ltBMCBAhsoEAGAH6xYSP/lao6+Qa6j1Lk1E3qaB2z/+20jy+Jj1FCRT4JEBhN4KING/c0+K8dDWwD8/u6xjFy3AaaKzIBAgRWLnDbxo37w1deQjs4rMAjG8fIzx22AP6eAAECBE4q8CeNG/dbnzRLftOZwG0ax8gfdeYhOwQIEJiEwD82btwvOAnFaRfiwo1j5B+mzat0BAgQWL/AKarqaw0b9+OrKoMQpb4FWg8U/XpVJVYlAgQIEFiSwKUadv4ZAPi3SyqHzaxeII/j7TRKf12/y+OIEgECBAgsSeAOjRv1319SOWxm9QJ/2DhWbr/6ItoDAQIENkfgcY0b9VtuDvXwJc2UvOv6tr/TfjIlsUSAAAECSxJ4U+NG/dgllcNmVi9w/sax8s+rL6I9ECBAYDMEjqmqbzZs1D+7GcyTKuVnGsaLJaMnFUoKQ4BAS4HLNWzMc4n35S0Lb98HEnhF45i57IFy7Y8IECBA4EQCv9K4MX/giXLjzQgCv9s4Zn55BCR5JECAQO8CT2ncmN+kdyD5O4nAzRrHzJNOkiO/IECAAIF9C7y1cWN+7n3n2B+0FjhX45h5S2sA+ydAgMDoAqepqm83bMw/NjrgBuf/Ew3jJjF72g22V3QCBAgcWuAqDRvxDAB80aFLYAOtBF7SOHau1Krg9kuAAIEpCNytcSN+/ykgbmgZ/mfj2LnrhrorNgECBJYi8MzGjfgNllIKG2khcKPGsfP0FoW2TwIECExF4F0NG/H/rKqzTgVyA8txtoaxk9tH79hAc0UmQIDAUgTOUFXfbdiIf2AppbCRlgIfahg/36uqxLBEgAABAvsUuGbDxjvf4J63z/z6eH8CL2gcQ1fvj0SOCBAg0L9A6wGA9+6fSA53EbhP4xOAu+ySP/9NgAABAjsIPKpx433dHfLkV2MJXK9xDD1yLC65JUCAQB8Cz2rYeGcA4Jn7YJCLQwj8QFXlXnxu6bT497RD5N2fEiBAYGMFnt2o0U5H8Z6NVZ9ewd/bMI7+dHqcSkSAAIHVCzymYcP9nNUXzx7WJPBnDePoj9ZURrshQIDApATu0bDhvvukJDe7MPdsGEdmA9zs2FN6AgQOKHDFhg33FQ6YZ3/Wn0Dm5G9x/z/7vHJ/HHJEgACB/gVOVlUfb9B4f66qTtE/jxzuUeCUVXV8gzj6QlVl3xIBAgQIHEDgsQ0a7ow9kKYl8IQGcfT4aREqDQECBNYrcFxVZW31dV3CzdTDF1lvEe1tDQIXW/PjgInZC62hXHZBgACBSQs8bo0nAFZwm24orfOx0kdPl1HJCBAgsD6Bc1TVZ9ZwEvDpqjr7+oplT2sWOKc4WrO43REgQGAJAletqm+u8CTghKq6yhLyaRN9C+Tpjq+Lo74rSe4IECCwKHC7Fd3HzVSxt17cmfeTFbhNVWWq52WPK0kc/fxk1RSMAAECjQV+sqq+tMTG+ytVdYvGZbL79QvcuKq+uMQ4+mpV/dT6i2GPBAgQ2CyBS1TVu5fQeP+bEf+bFTgLpb1oVb19CXH0rqq6+MK2vSVAgACBFQkcU1W/WVWfPEAD/sGqyu0Ek/2sqHIG2mxi4PZV9aEDxNEntq5GZbrqUw1UXlklQIDAZAROXVU/U1UvqKrM4Hek+7o5UXhyVd20qnLyIBGYF0hM3KyqnrLLSWVi7PnbMZfYkwgQIECgA4FMHXxsVV2zqm6y3dnn9fk6yJssjCUwi6OcMCaWEkf5XWJMIkCAAAECBAgQIECAAAECBAgQIECAAAECBAgQIECAAAECBAgQIECAAAECBAgQIECAAAECBAgQIECAAAECBAgQIECAAAECBAgQIECAAAECBAgQIECAAAECBAgQIECAAAECBAgQIECAAAECBAgQIECAAAECBAgQIECAAAECBAgQIECAAAECBAgQIECAAAECBAgQIECAAAECBAgQIECAAAECBAgQIECAAAECBAgQIECAAAECBAgQIECAAAECBAgQIECAAAECBAgQIECAAAECBAgQIECAAAECBAgQIECAAAECBAgQIECAAAECBAgQIECAAAECBAgQIECAAAECBAgQIECAAAECBAgQIECAAAECBAgQIECAAAECBAgQIECAAAECBAgQIECAAAECBAgQIECAAAECBAgQIECAAAECBAgQIECAAAECBAgQIECAAAECBAgQIECAAAECBAgQIECAAAECBAgQIECAAAECBAgQIECAAAECBAgQIECAAAECBAgQIECAAAECBAgQIECAAAECBAgQIECAAAECBAgQIECAAAECBAgQIECAAAECBAgQIECAAAECBAgQIECAAAECBAgQIECAAAECBAgQIECAAAECBAgQIECAAAECBAgQIECAAAECBAgQIECAAAECBAgQIECAAAECBAgQIECAAAECBAgQIECAAAECBAgQIECAAAECBAgQIECAAAECBAgQIECAAAECBAgQIECAAAECBAgQIECAAAECBAgQIECAAAECBAgQIECAAAECBAgQIECAAAECBAgQIECAAAECBAgQIECAAAECBAgQIECAAAECBAgQIECAAAECBAgQIECAAAECBAgQIECAAAECBAgQIECAAAECBAgQIECAAAECBAgQIECAAAECBAgQIECAAAECBAgQIECAAAECBAgQIECAAAECBAgQIECAAAECBAgQIECAAAECBAgQIECAAAECBAgQIECAAAECBAgQIECAAAECBAgQIECAAAECBAgQIECAAAECBAgQIECAAAECBAgQIECAAAECBAgQIECAAAECBAgQIECAAAECBAgQIECAAAECBAgQIECAAAECBAgQIECAAAECBAgQIECAAAECBAgQIECAAAECBAgQIECAAAECBAgQIECAAAECBAgQIECAAAECBAgQIECAAAECBAgQIECAAAECBAgQIECAAAECBAgQIECAAAECBAgQIECAAAECBAgQIECAAAECBAgQIECAAAECBAgQIECAAAECBAgQIECAAAECBAgQIECAAAECBAgQIECAAAECBAgQIECAAAECBAgQIECAAAECBAgQIECAAAECBAgQIECAAAECBAgQIECAAAECBAgQIECAAAECBAgQIECAAAECBAgQIECAAAECBAgQIECAAAECBAgQIECAAAECBAgQIECAAAECBAgQIECAAAECBAgQIECAAAECBAgQIECAAAECBAgQIECAAAECBAgQIECAAAECBAgQIECAAAECBAgQIECAAAECBAgQIECAAAECBAgQIECAAAECBAgQIECAAAECBAgQIECAAAECBAgQIECAAAECBAgQIECAAAECBAgQIECAAAECBAgQIECAAAECBAgQIECAAAECBAgQIECAAAECBAgQIECAAAECBAgQIECAAAECBAgQIDC4wP8FGPGdA61FJKQAAAAASUVORK5CYII=;" vertex="1" parent="1">
          <mxGeometry x="341" y="295" width="20" height="20" as="geometry" />
        </mxCell>
        <mxCell id="Xxx18RUa-ldN1qxlRB1q-20" value="" style="line;strokeWidth=1;html=1;strokeColor=#96B6C5;" vertex="1" parent="1">
          <mxGeometry x="35" y="369" width="333" height="10" as="geometry" />
        </mxCell>
        <mxCell id="Xxx18RUa-ldN1qxlRB1q-21" value="&lt;b&gt;&lt;font color=&quot;#96b6c5&quot; style=&quot;font-size: 12px;&quot;&gt;Confirm Password&lt;/font&gt;&lt;/b&gt;" style="text;html=1;align=center;verticalAlign=middle;whiteSpace=wrap;rounded=0;" vertex="1" parent="1">
          <mxGeometry x="35" y="344" width="129" height="30" as="geometry" />
        </mxCell>
        <mxCell id="Xxx18RUa-ldN1qxlRB1q-25" value="" style="shape=image;verticalLabelPosition=bottom;labelBackgroundColor=default;verticalAlign=top;aspect=fixed;imageAspect=0;image=data:image/png,iVBORw0KGgoAAAANSUhEUgAAAgAAAAIACAYAAAD0eNT6AAAAAXNSR0IArs4c6QAAIABJREFUeAHt3QncfdWg//Gv5lGj5pEiTShFKkKum+QWjaJrKoRCJdMlw02DkLmBBnMZK4quokKGRIomSWmUNGnO/7+/tc+v85zfOc+Z9rCGz369ntdznvOcs/da77X2WmvvvQaJDQEEEEAAAQQQQAABBBBAAAEEEEAAAQQQQAABBBBAAAEEEEAAAQQQQAABBBBAAAEEEEAAAQQQQAABBBBAAAEEEEAAAQQQQAABBBBAAAEEEEAAAQQQQAABBBBAAAEEEEAAAQQQQAABBBBAAAEEEEAAAQQQQAABBBBAAAEEEEAAAQQQQAABBBBAAAEEEEAAAQQQQAABBBBAAAEEEEAAAQQQQAABBBBAAAEEEEAAAQQQQAABBBBAAAEEEEAAAQQQQAABBBBAAAEEEEAAAQQQQAABBBBAAAEEEEAAAQQQQAABBBBAAAEEEEAAAQQQQAABBBBAAAEEEEAAAQQQQAABBBBAAAEEEEAAAQQQQAABBBBAAAEEEEAAAQQQQAABBBBAAAEEEEAAAQQQQAABBBBAAAEEEEAAAQQQQAABBBBAAAEEEEAAAQQQQAABBBBAAAEEEEAAAQQQQAABBBBAAAEEEEAAAQQQQAABBBBAAAEEEEAAAQQQQAABBBBAAAEEEEAgPoH5JT1F0k6S3iLpwPLHr/3ehpL8GTYEEEAAAQQQiFxgKUlvkHSGpLsk/b8hP/7M6ZL2krRk5HEn+AgggAACCGQnsKakzxVX+PcMqfBnaxDcLekzklbPTo8II4AAAgggEJnAwpI+KOneKSr+3kaBGxHvl7RQZBYEFwEEEEAAgSwEniTpdxVW/L0NgUskrZeFJJFEAAEEEEAgEoGtJd1RY+XfaQzcJum5kZgQTAQQQAABBJIWeHHFt/w7lf2g3368sE3SokQOAQQQQACBwAU2l+TOeoMq67re92iBZwRuQ/AQQAABBBBIUmA5Sde1UPl3GhXXSlo2SVkihQACCCCAQMACp7ZY+XcaAd8O2IegIYAAAgggkJzADgFU/p1GwLbJ6RIhBBBAAAEEAhSYp5i610PyOhVw278dFoeJDQEEEEAAAQRqFNgxoMq/0/jYvsb4smsEEEAAAQQQkPTDABsAp5EyCCCAAAIIIFCfwAqSHgywAfAAIwLqS3T2jAACCCCAwO4BVv6dxwA7kzwIIIAAAgggUI/A5wNuAHy6niizVwQQQAABBBA4N+AGwFkkDwIIIIAAAgjUI9DmzH+dW/2Dfv+1niizVwQQQAABBBDwHPyDKuC237+d5EEAAQQQQACB6gUeI+nfATcAPDqBDQEEEEAAAQQqFnADoO2r/NmO78YJGwIIIIAAAghULEADoGJQdocAAggggEAMAjQAYkglwogAAggggEDFAjQAKgZldwgggAACCMQgQAMghlQijAgggAACCFQsQAOgYlB2hwACCCCAQAwCNABiSCXCiAACCCCAQMUCNAAqBmV3CCCAAAIIxCBAAyCGVCKMCCCAAAIIVCxAA6BiUHaHAAIIIIBADAI0AGJIJcKIAAIIIIBAxQI0ACoGZXcIIIAAAgjEIEADIIZUIowIIIAAAghULEADoGJQdocAAggggEAMAjQAYkglwogAAggggEDFAjQAKgZldwgggAACCMQgQAMghlQijAgggAACCFQsQAOgYlB2hwACCCCAQAwCNABiSCXCiAACCCCAQMUCNAAqBmV3CCCAAAIIxCBAAyCGVCKMCCCAAAIIVCxAA6BiUHaHAAIIIIBADAI0AGJIJcKIAAIIIIBAxQI0ACoGZXcIIIAAAgjEIEADIIZUIowIIIAAAghULEADoGJQdocAAggggEAMAjQAYkglwogAAggggEDFAjQAKgZldwgggAACCMQgQAMghlQijAgggAACCFQsQAOgYlB2hwACCCCAQAwCNABiSCXCiAACCCCAQMUCNAAqBmV3CCCAAAIIxCBAAyCGVCKMCCCAAAIIVCxAA6BiUHaHAAIIIIBADAI0AGJIJcKIAAIIIIBAxQI0ACoGZXcIIIAAAgjEIEADIIZUIowIIIAAAghULEADoGJQdocAAggggEAMAjQAYkglwogAAggggEDFAjQAKgZldwgggAACCMQgQAMghlQijAgggAACCFQsQAOgYlB2hwACCCCAQAwCNABiSCXCiAACCCCAQMUCNAAqBmV3CCCAAAIIxCBAAyCGVCKMCCCAAAIIVCxAA6BiUHaHAAIIIIBADAI0AGJIJcKIAAIIIIBAxQI0ACoGZXcIIIAAAgjEIEADIIZUIowIIIAAAghULEADoGJQdocAAggggEAMAjQAYkglwogAAggggEDFAjQAKgZldwgggAACCMQgQAMghlQijAgggAACCFQsQAOgYlB2hwACCCCAQAwCNABiSCXCiAACCCCAQMUCNAAqBmV3CCCAAAIIxCBAAyCGVCKMCCCAAAIIVCxAA6BiUHaHAAIIIIBADAI0AGJIJcKIAAIIIIBAxQJuAPxb0v8L9OehiuPL7hBAAAEEEECgFPhXoJW/GyW3k0oIIIAAAgggUI/A9QE3AK6pJ8rsFQEEEEAAAQTOC7gBcDbJgwACCCCAAAL1CBwdcAPgs/VEmb0igAACCCCAwB4BNwB2JXkQQAABBBBAoB6BlSS5t31oIwEelLRcPVFmrwgggAACCCBggR8H2AA4g6RBAAEEEEAAgXoFdguwAbBTvVFm7wgggAACCCAwr6TLA2oEOCwOExsCCCCAAAII1CywS0ANgB1qjiu7RwABBBBAAIEugR8F0Ag4rSs8vEQAAQQQQACBBgSWl3RDi42AGyWt2EA8OQQCCCCAAAII9Ag8V9K9LTQC7ilGI2zZExb+RAABBBBAAIEGBdwD/4EGGwH3S+K5f4MJzKEQQAABBBAYJPBiSU2sFHiXpBcNCgTvI4AAAggggEDzAutKurjGOwGXStqw+WhxRAQQQAABBBAYJrCYpCMqfiTgW/6HSlp02MH5PwIIIIAAAgi0K7COpC9N2RBwxX+8pCe2GxWOjgACCCCAAALjCniY3n6SzpPkCn3YIkL+zDmS3iZphXEPxucRQAABBBBAIDwBPx54lqTXFEMH3ynpkPLHr18taTNu84eXaIQIAQQQQAABBBBAAAEEEEAAAQQQQAABBBBAAAEEEEAAAQQQQAABBBBAAIE6BeaR9DRJe0r6hKSvSzqz/PlesVDIUcXsZAcUPZC3lrRInQFh3wgggAACCCQg4Pk2XiDpHZKOlnRKV73qOvbjZZ37VEmugxvfNi0DdtMIw4o6w468eMj3Je0saYHGQ8wBEUAAAQQQCFNgQUm7SvqBJNeVnXpz2G+vyOkL7ac3Ea2tipbJz8YI3KDAXy9pbxoCTSQZx0AAAQQQCFTAF8NvrmhZ73MlPbuOeC5VtjIGVeiTvn9FXQGuA4F9IoAAAgggUJGA5934YwUX1L3170mSlq0ojNq8otZJbyA7fz9Y3PI4sKrAsh8EEEAAAQQCFniMpHdJeqiGyr9Tr/ouuxsYU227FQG9r8ZAdgLr3563nL4BUyUXX0YAAQQQCFjAddyXG6pT7y373E3EsYskX513V9J1v/5RsZLZ4hOFli8hgAACCCAQroDrNo+Sq7se7d7/A5M0AjxfuFsP3Ttq6vVvJC0fbhoSMgQQQAABBMYScJ3muq2perT7OF7g6zmjhtYrgI0zvK/7QFW9dufAJ4waYD6HAAIIIIBAoAKuy65sqfLv1Mk3SFpuFJ9vtRzQToA9vnGjUQLMZxBAAAEEEAhQYINi0p7rAqlTvzHMZ5tAAtppBNxRziI4LNz8HwEEEEAAgZAEPAOu67BOfRbCb88w2Hfz0ITfBhZYg3kUgmdIYkMAAQQQQCAGgSZH0I3TsPjlILznB1j5dyL273JNgUFh530EEEAAAQRCENin5jH+nXpx0t9b9kP6WsANgE5ED5XkOxVsCCCAAAIIhCTgusl1VKe+CvW359yZsXkhgtCeVQzCO1HS/DNCzx8IIIAAAgi0JzCfpGMiqPxdr97eW4c+L5KAdxoFXjHJSyayIYAAAggg0KaA6yLXSZ36KYbfMx4DvDOywBv4V5Ie12aqc2wEEEAAgawFlq5ohdymGw1v6041PxNoOgBVHO9SSWt0R4TXCCCAAAIINCDguueySOvOL3b7nBVpJNyI8AxHT+2ODK8RQAABBBCoUWB9SddGXG+e0W1zYcQRcSPgNklbdUeI1wgggAACCNQg4LrGdU4Vd7Hb2sevu11+F3lkjOjFi7yCIRsCCCCAAAJ1CGwv6Z4E6ssZDYDzE4iQGwEPSXpTHanOPhFAAAEEshZw3eI6pq2r9iqPe153Sn43kUh1gA5hwqDu5OU1AggggMAUAgcmVkee3G3x8cQi54bAsZI8OQMbAggggAACkwi4DnFd0rm4TOX3Yd0YeyQYQSfUKZIW6Y4orxFAAAEEEBhBwDPkfjPRunHGAnsez5hKy6Y3Hj+T5Mka2BBAAAEEEBhFINYJfnrrv35/e3G9VXoR/pBwI+ASSav2Rpi/EUAAAQQQ6BFYTZLrjH6VZwrvXdAT34f/TK2TQ29CXS/pKf0iznsIIIAAAghIWlfSNQlX/q4XZ0wD3El1z6ufwvjG3oq/++9bJW3RiTC/EUAAAQQQKAVcN7iO6K4zUnv9r9keiX8s8cg7MT1h0I5keQQQQAABBEqBl0i6O4P67yOzpfiykm7JAOFBSXvOBsH/EEAAAQSyENhLkuuE1K72e+Nzk6SlhqXo7hlAdGA8YRAbAggggECeAqn3fevUdf498p3v4zNqBHxO0rx55n1ijQACCGQp4DLfZX93BZnya09mNPK2kCSPn08ZpDtu35LkOLMhgAACCKQt4LL+2xnVb+dI8qRGY22PlfSLjJAc12XGEuLDCCCAAAIxCSwp6acZ1Ws/l+S6fKLNX/y/jLAukrTyRFJ8CQEEEEAgZAGX7S7ju+/+pvzadffi0ybIApK+lhHa1ZLWmRaN7yOAAAIIBCPgMt1le8oVfnfcKn2s/RhJh2eE58kgNg8m6xIQBBBAAIFJBTaVdHNG9dcnJc0zKdZs39tXkhcS6G5ppPraMyZtOxsG/0MAAQQQCFrgBZLuyKTOct18UN2p8UpJ92cCyoRBdecm9o8AAgjUI+Bl7nOqq15XD+Pce92aVtXcKLyDAAIIIBCEAHera06GTTJ7rvKpup6r1JxO7B4BBBDIRSC3/mr/aLO/2hMkXZnJ4wD3dfDkEUwYlEtRQjwRQCAmAUastZBaK0q6MKNGwNmSlmjBmUMigAACCPQXWEzSDzOqhy6WtEp/iubf9exKP8kI/w9MGNR8JuOICCCAQB+BFSRdkFH947o2uItQ3xr35AOpDgvsjddVkvwIhA0BBBBAoB0Bl8Eui3vL51T//mbIj6G9wtJnM0qMayWt1U6+56gIIIBA1gJrS3IZnGpl3xuvL0iaL4YU9xrLuUwY9BdJj4shUQgjAgggkIiAF27LqQP6IbGl256SPJFObysmxb+96EItUy/GluiEFwEEEKhZwGXtWZnULa5DG5vgp+p0206Sp9RNsdLvjdM+VeOxPwQQQACBuQT2y6ROuVfSjnPFPrI3vKiOF9fprTBT+/suSR4SyYYAAgggUI+Ah77dnUF90uoEP1Un3XqZdNb4TNVw7A8BBBBAYI7AURlU/tdIWndOjBN5sZKk3yeeeL5lQ4fARDIs0UAAgaAEXLa6jE3t7nF3fP4oabWg1CsMzNKSzks8Afev0ItdIYAAAgg8IvCuxOsO142uI5PeFpR0csIJeX7SqUfkEEAAgXYEfptwvXGKpEXaYW3+qJ7M4JhEE/MhHgM0n6E44kABL5CyVPmzvKTHlz9PkrRx+eMJVfz+ml2fXXTgHvkHAs0LuIN1qnPLuC70JHpZbV628YOJNgK2zSoliWydAj5PPNf50yW9WNIri1E1HnL6fkmfKCrtEyT56uHcYsiQFwi5roahtx7K65E8/rlC0i8l/aCYCvtLRYPhyKJgfp+kN0naTdJ/FOHZSNLqkrxACxsCVQj8V6J1hevArLe9E5ww6N1ZpyiRH0fAHZs2LTrI7lBW7IdJ+kpZoXuWyfsiL/jcaPBqod8tGwtvk/TS8s7DsuNA8dmsBdzI7O4sF/trT/DzxqxTtCvyL5N0T0IJ7PUQ2BDoCMwvybfcty/yuafJ/qKkX5RX1LEXZNOG3/NnXCLp+2UDYS9JzwpxtbNOYvK7FYGjE6ofXNe5zmPrEniOpH8mksju5MiWp4BXJ9tJ0kfKq97LJN2fSL6etrIf9/t/LR81+K7If5d3DbLpKJXn6TMw1t9J5BxyHee6jq2PwIblM8xxC4rQPv/tPnHjrbQEPB/5E8vn3odL+nFCDdjQzqfu8LiTrfsheFnUAwr3LXPqPZ3WKTRWbNzPpTsfxPja/XNcx7HNIrCGpEsjT+xvzBI//hWngJ9X+xb+EZJ+Kun2yPNojAXooDA/IOmCYvSNZ+J0J0k3zNjSEvBF1aD0j+H9P5UdY9NKlZpi48LW4+ljSNh+YfxUTS7stjmBlSW9XJL7c7h3fapDkPrl3xTeu6XsV/A/RYfK50taqLmsw5FqEPh8xPWB6zI6vI6ZKTwO2R2DYiyMmA1wzMQO4ON+dv8aSccXV5F/jjTfxXiuNBVmLyDzo2IhmXdIehrLdwdwxo0XhFhnAXQdxpwa46X1nE97coQYJwx63pwY8CJUgYWLaam3Lq4MDynG1/+GCj/KhvY0jYe/FwuunCTJow782JEtbIFtIjxHT5TkEUBsUwh4IhQX0tOc7E1+1z2+HztFfPlqfQIeirevpDMSG3baZP5O9ViXl30ItuNxQX0n4BR79hz5HjsfS/7zKCDXXWwVCbjgdg/g0DPA2RXFl91ML+BpcH3l4Of4V0WQd0LP27mE785yvZLdi9kWl5w+G7KHigQ822XoedB1lOsqthoEPINY6BMG+ZYiW3sCXmzKV3FeN/zmCAqM0Au03MPnq06v0uZC3R1D2doT8KyxIedHz9rp6bDZahRwj95Qh2A5XMx/XmPiD9i1n+e7cegpdEPNGyEXXIRttIrFV3eewdGzOTLUcMDJWOPbS0jy3ZkQ86vLHddNbA0IuBfvDQFmhA80EHcO8YiAK/2dJXnOBU8nG2KhQJjSTpdfl+s3LMdJ2ZjAwQGe666LXCexNSjg5Us9I1gohexNzF9ee+q7U82zJX2BK/1g8n0o51+b4fBERKdK2kWSG6Zs9Ql4aWuP4GgzvbuP7TrIdRFbCwLLFMuP/jyQzOCrUbZ6BFYrb7uG1ODrLgR4HU6B3HZa+Fawh395iKmni2arXsCdM9tOZx/fw4e5+1N9+o61Rz9z/2HLGcLrorNVK+De13uWHbCYhS+MAi+EQjemMFwt6cOS1qr21GBvRR+Mr7Zc5rvOob9XIFnRw72+3FKG8HNAbvtVlxF8i98nd+ijPWKqiAhruw0odx703BNeS8KTm7FNL+BVIduawMt1jesctoAE/Hz40IYbAb9jjudKcsDi5Yxsv284/agY260Yc/S/vpzYbNVKzpy8d/K4YvTPRQ2XGUfyaCfsTLePJHfKqbtw8Ypw7oPANrnABuUkPXc0kF515wf2X/85l5KxZwz1VMTPZca4yQuQYvZGNwI8T0PdecN1iusWtggEPB7TLe06MoWfR7sVyBzPk2UE3zrbVdI5NaVPHWnOPus5l3B9xNVLxXqiIY9zZxtfwGWKl4Kuq6/QdUV5xfou46dLq9/wcJEvVjx98B8lPafVWMV7cN8t8dKsN1Lx19IwpTKNv5HiEQSHMePgxIWcL/wurbB8cd+NY5kOeuL0COKL60v6uiTfcpu0kPR68K+mA89E6ekxsp9isp6J896keZbvTX6+t23nKWWPK9YjWG+iMy7vL80n6bWSLpmivLe/OyKvmzdlWrFfobzN5jXB/zUkc7jl5wz0UUmbp8XQWGw2KWfpi2kFr7YLfo4fb6VdR9r5lrYnGPLIGLbxBbaQdEQxY6jv3LpMny2NPJuoR2r4Of/y4x+Kb8Qk4KE4T5a0raRXlT3QvYjPjkUmeGaRadwrnW18AY/EsKlXRJztZON/+JAHxssD50t6GT3Qxy+Uym+4TN+sLONd1vvHZb/Lq3W4uzuxK19E4OGxza8oTi4/KqFgx4A8UF8euLysuHyrmw0BBBBoTcBTne5UzIHuXswU+hiQB5rLA38pr2JpCLRW/HFgBPIUoOJvrqCnUsV6tjzw57IhwAyDeZbFxBqBxgRc8W8n6UKu+LnjQR4IKg+40/IePMturCzkQAhkI+CK35P3TDO0ZrarGP7HVS55oJo84Om0d2B2wWzKZiKKQK0CLywWMfGaBxTQGJAH4skDXihnq1pLBnaOAALJCngSktOo+Gn4kAeizgNnSvKaG2wIIIDAUAGvUnaUJCbwiedqjytz0mq2POCFbHxOM8HN0OKPDyCQp8DS5TKl93DFF/UV32wVAf/Lu6Hg2e4OKpZNXzjPIo5YI4BAr8BCkg4spkn+JxU/FT95IIs8cI0kT9zlzr1sCCCQqcBLJHkcMVeGGJAH8ssD7ijo6XHZEEAgI4G16OBHo4eGH3lAkhccOlHSchmVf0QVgSwFFili7WeA91L4U/iTB8gDXXng1nK1VGYUzLJqINKpC3gGv792nfDc8s3vli9pTpoPywMXlCuipl4eEj8EshB4iqRzqPizvdrzEDBf3fnn5rLPh/t9XCrJz4D94xXm/J4XmOl89l/kmWzzzEPFkMHPSfLIIDYEEIhQwLf7D5PkCmBYq5//x2H093IdhlPKcd0HS9pf0mvL6V8989uGkjyXw6IV5tnFJK0gyZNDPbs81uuKR0nvlPRRScdJ+p6k84qwXCvJFQh5Kn4DNxhfw7TCFZ5J7AqBBgReQO/+KCugWySdK+nYonPW+8p137eWtE5kY7cXkPSE4s7T88oK5AOSTpD00yJOVzPJVHR588dFR8HHN1BucQgEEJhCYKnyytA9e7kCC9fgekmeotWzs+1bXDm7ks+pgJ2/vJuwU5HX3Sn11LLBSr4NN8/eXc4XQifBKQpovopAXQKe2MO37Kj4wzFwhebn61+TtF+5OMtj68oACex3SUlbSHpDMSzts2X/BB5hhZOfXbb8XNK6CeQ1ooBAEgJrFr12z6DiD6Lhc52kb0g6oLz9vUQSOazdSLgvi/sdeLbK70q6gbzeel73MOL3SPKdHDYEEGhBwNN4+vYxvbXbu0LylKpfkuQOcWu3kAdyPaQbvS8veql/UtIfaBC01iC4sOj8+bRcMyHxRqAtgdWLq6KzKPgaL/hc4R9fzKfw6sye2beVz0c97oqS9igbY9whaLZB7Ec0/yvJHT/ZEECgZgF3nPJYbZ7112/gJZE9Tt4d1TZmOFTNObu63btD5V7Fs+qTJN3OudJIWXFROQS1ulRkTwggMEfA47A9/puKv16DG8tx7W5ouVMaW9wCC0raRtLRkm7i/Km1/PBIgTfTUI77hCH04QnsKMmTwFD512PgWfAOKRZIejqFV3iZv8IQeQjblpI+Vs56yPlUz/l0ejHE1Y9l2BBAYAoBj+v/ChV/LQ0fV/qHlrf2p0givhqxwEaSPiTpYs6xys8xX7DsEHHeIOgItCrgoU+eVpWrlOoMriorfV/psyHQLeAplD2tsYdycs5VZ+BZLRfvhuY1AggMFvBtSnc6cwc0CqLpDdwJ7Jhi5r3Nub0/ONPxnzkCPv9eKOnLDLGtrPy5UtKmc4R5gQACfQVWKedLp+KfruL3YjRemMY9wb2QDRsCkwgsLMmdQT1VMTMSTndO2s+TOT1mkoTgOwikLrC9pH9w1T/VVYevNP5H0mqpZxbi17iA85T7CzDPwHQNgW8zuqbxvMsBAxZYSNKnqfgnrvj9qMSFyvO5ugg4l6cTNE9/u7OkszlnJz5n3Rdnk3SyBDFBYDIBL/Pq6TS55T++wT8lHVnMzLfGZPR8C4GpBZ5YDh/lzt345y+PBKbOfuwgZoHdJN1F5T924+f8YunYV0ryBC9sCIQgsGgxemBP1iUY+1z2hc+3JLFoVgi5mDA0IuBbiL5y5ap/dANfLXg+BIbvNZJFOciEAu7g9iIeD4xdtnlODk+1zYZA0gLLsYjPWIWDlx09kZX2kj4nUo2cV8lz3mX0wGgNfZ/rr0k1MxAvBDwF6fVc+Y/UAPAsYp6a1+sfsCEQs4CXLvYdP5btHq0hcFSxuqDvkrIhkISAbwu+nSuBkSr+vxRDId8iaZEkUp5IIPCogO/+fbgoC+7gImBoWeClzpd9lI5XCMQp4CkwvSQpz/tnN/AzwFcVBeR8cSYzoUZgZIFlig6sH5F0J+XCrOXi1ZL8GIUNgSgFnlDMInYJJ/nQk9y9p7nlF2UWJ9BTCDxO0uE8Gpi1fPDywrtPYcxXEWhFwPPOs/b44Kt+L3K0b/Gc35MgsSGQs4Bvdbu/iys77hT2N6BfQM5nSGRx9/zz93My9y3M3AnSz/ip+CPL1AS3doGVyhlBKTv6NwJ+yHwBtedBDjCFgJ9fM76//8nrFfneTee+KXIXX81FYO1ychzuBsxdlvyBmT9zOQ3iiqc7+3nFME7amQYeA+3bdwzniys/E9r2BZ5RrmhJmTKzTPEQ4S3aTx5CgMAjAu7s90cq/7kaP2dKWp9MggACEwt4CLGXI/YoGRoCjxp40qCXT6zKFxGoSOC5LOE7V8Hkufo96REbAghUI+B1L/YvOs56ASwaAo8Y/FvSu6rhZS8IjC/gFuh9nJBzCqS/SfICR75qYUMAgeoFPGLgGEkPUe7MKXeOk7RA9dTsEYHBAu+Q5BYorfFHRjwcJmmxwVz8BwEEKhRw/4DfUP7MKX/PLjpgL1WhL7tCoK/AvOVQHSr+Rxo/PvHW6yvFmwggUKfAPJL2kOROcZRHj0y6tmqd4Ow7bwE/h/sGJ9vDhc11ZeGTd44vjl0yAAAgAElEQVQg9gi0L7B0OfyYxwKSy6UN2k8SQpCagOfv/hmV/8MTHHke80VTS2Dig0DkAptJupAySrdIembkaUnwAxLwcp5/4sTSbyVtFFC6EBQEEJgp4MnIDix+7sm8vPLSy9vOpOEvBMYX2FDSDZmfTHdJeqsk939gQwCB8AXW4Y7lw3cr3UeCDYGJBHwb6dbMK3/Pv+07IGxxCywhaa1itsqNyx/P07B1z4/f6/zfk1s9Nu4oZx96dxLcJ/Nlhz1S64DscwIAYwu4cMx5vW4/R6P1PHa2aeULHv7k57+eg8EToxwt6UeSLi7vXk2zuIy/6ztg3pf36WmdfQwfyw3kJVuJMQcdR2CNMu1yHingZZeZn2ScXJPxZ7eX5Kkmcz1hTpa0XMbpH3LUfTdmV0nuiHmapGsCyKd/LcNycNFXZhcWawky+7jye3XxKO+2APJLW+XqZyX5rggbAgMFfNXrBWzayqRtHtfTjL5ioAz/aFrAhZVvybv/hRtlXkq5zfwxzrE9HOukYurafcuOoxS8Teee/sdbXZLn7hgnLVP6rGcNpC9T/7yR/btvzHiKzf+TxCQa7Z8CHm7qxV98q92VaCqFryercYNgryJuK7bPnHUIfDfADbNc73J6Lpf5s84BRH4ugfcmVNiOU2ncXXYU4vnYXFmisTdcIb5F0rmZNEAflHSOpDezTHRjeazfgTzC6aJMy73vFY/RPLEbGwL6cKYnwa+LmQ2fTPq3IuDOc28ob8fmPIObGwNnlXcGPFKBrVkBV4IfzaTh2Xth5BFOizTLzdFCE/jfDCt/F7of4jZYK1lxi2JY5QmSfOelt0DK/W9P3uJntM9qJWXyPqiXNQ+hQ2nT58BPJS2ed9LnG/scK38/V/bJztacgKdN9u3uS6j0R270eNjh3lyhNZdJJbn/yakZ5tGfM+dFo/ksiIP5Crjp1mbbxzuTZ66N5j0PpTyoqPw9p0LbaR/r8T1s7UhJKzeacvkerNNB8L7M8qwbAdwJyCTfewx1rAXiJOH2ybwfE2E0lrs98cqxGfeyniSPDvuO57b3yAgPY2OrX8CTPF2dWTnpjqmL1U/LEdoUyK3Dn09inqk2k+NWKa9Wcx1eNawSr+L/npnQDQHuCNSfp90p00M3q0i3WPbhkTg0AurPW60c4ZDMMrNPXnpW15/V/Oz0E6zA1mhF4U6UR0hauv7kzfoIfiTgiahyeiTgUSmMDkgs238go8rfMxlyy7/+DOzJRDyhSu4LRrV5def+FW+S5GVw2eoT8COBv2VUhrq/1ML1cbLnJgX2zyjj3iRpqyZxMz3Wf0r6Y0b5qs1KfpRje9TACzLNi01Fe4VysqpR0iOFz3iegIWawuU49Qi8XpKXhEwhQw6Lw/lF5zM/h2arT8CFYG7PRYflu5D+/1UWsqov85dzh3w6k/LU+drDIpk2uNYsVd/Od5TkSW9CKqDqCos7Ri1QHyV7Lufo95z2daUh+63G1o9kvOYA01vXd9ruLskTN+WQZ7/CKoL1ZaS69vxfmazq5+FRXuaTrT6B1ST5mWAOhV1KcTyD0QL1nRTFEtBPz2j2wM/UKsnOKxXYOpMx2F4edtNK5dhZr8DORUc/L5OcUsWYU1z+IellvYnK35UJPK7oc/STTM4PzxzLFriAe6vemUGG/D2TotSaEz0rmB+r5FRZphzXExnfXdv54hEYn83kXHlHbYrseGqBDTK5WvuWJM8vz1aPwFMlXZlJgZZypd8bt8skrV9PlmGvxTwYB2awqqA7lL+O1A5PwDOD/TWDQtvzos8THn8yIdoto85NvRVkDn97AqH/Tia3hheRHSTdlXg57OW7dwmPPt8QebY73xJPuQDz9LJ75JvEtcfctzFzmyky5fNlWNz8eIfhXfWcVk/J4GLMU1Iz70Q9+WesvXqiBq/pPOyEj/n/N0vabCwVPjyOwFKSzk48D8Wc/+sKu0d2MFX2OGfK6J/1HdkLEj+nvFKlHzuztSTgW+EnJ57J/Cx67ZZ8czjsmsXtvD8lnofqqkBT2K9nEGSFwXrOdPdTOi3xc+taSavWw8dehwl4AZYUCqFBcfi1pOWHIfD/iQU8hPLGxPPQoLzF+4+WHTeUY9onzkh8caDAvBmMprmkWAXUdxHZGhQ4IPGC+wcMW6o1N72Izn5JN57HbeC449p/1Jrj8t25Z2T8UOLltR8hLphvEjcbc/fUTnl+/y+yulmtGeqlmS1vOm5lmOvn3dHWM4iy1SPwxsSnZv8aI7TqyTjde/X0kynPQe2e6Mxh3p3i1b5249HLJedayRHv2dPea4cw2qbac657b25geShmqvnw8O7I8rpaAXfWSfWZrceW7l0tF3vrEXhtBhOVpFqwNhkvNwJe1ZN3+LM6gS0lecGmJtO0yWP5TgdbxQKemvWiRDONr0hfUbEXu5sp4NXL3MhqsiDgWPF6uxGw68wsxF8VCnj4nDtfpniOuDxnjoAKM4uH+30v0cxyH4uVVJhT+u9qe277J1nQ1l15eLKX7fpnKd6tQMBDcP+caLl+ezFEfb0KjNhFMVnHxxPNJPQ8rj97uyXuzl11VxbsP01jN9C3qT+bZnsEL7V9eaLn51WSvFoi2xQCr0k0c3iJ2WdN4cJXhwtsnMG85DQ86m94eHXRpw3PbnxiQgHPdZLqVO7nMDxwwlwh6fmSfBsutULuJkmeL5utPgF3GE31GWNq50MM8fmbpFXqy67Z73kZSZ74LIa8MG4Yv5B96k4A4OdDtySYIa6X9KQJPPjK6AKe391TvI57ovJ5zGbLA75Kfezo2ZBPjilgW18xz5YGsf5v/zEtsv74IsWEHBcmmBGo/OvP1l7Vz4u8xFpQEO6w0+70YlY7T2/LVo+A1w9IcWEuj0Dy7KNsIwgcl2AB7vkL1h0h7nxkOoGPJph3aBSE1Sg4eLosyreHCPgC8KwEz2P3+1prSNyz//e+CSY8lX8z2XqHxKeIpiEQRkPA05Dv2EyWzvYoqTYCvPIoj5EGZGv3ivewm5QKOir/AYld8dvuV+GxtynlHeISbnrewR29is/guXeXaiPgO0z3Pndir5zgNL9+5r/O3FHlnYoFXFC4ZU2FObuB52D3+uW/Kztbua9E98+55XAs93i/B8+h+ekPkhauOC+zu5kCiyXaMfCdM6OZ919eRvH8xAocD/Wj8m8mX38+sbwzTUPGt6c9scopkrwwyeskee71SSYk8Xf8Xe/D+/I+r8B6RsPgU81k8ayP4kaAG6fTnBehfddTTb8w61TtinxqBbg7ezy1K368rE/gJYkVDJMUVFdKOrqcu96TqtS9+RheVdHH9LEnCXMq33GDi97ddec4yWvB/CqxvPYPSU+ony7sI7ggSaUwcDw8vS8z/DWT51YsVlC8ObH8M8q54ErnvGKio9dL8lSqbW+edOkNZZgctlHikNJn3M9nubYTIYPje7IgP3ZJKe/4cVy2j5HWluTONKkkqOec3zqDEzGUKPqWdCp5Z5R4eOGUgwK/avAwpw9I8jzoo8Qplc98O5STIvFwrJDgY6hjEk+zvtFbSNJvEyokvASkV51ja0Zgl4TyzmyVoK+oTy0mR3lOZD2HHyNpK0mnZTQ086XNZP3sj+I7Ttckdv5ntxz8ZxJKQBfSXrSIrRmBpRMcMdLbCPDMYa74N2mGtNajbCjpREnu+NQbz5T+9toTS9Uqyc47Ar57nNJaH350nM1EcZ5EI6UTf+9OruR3IwLHJ5Z/us8FV/yuLJ/ciGSzB3EB95XE7wi4YyRbMwJeUO3WhMoCr1/iqZCT3h4v6baEEu3DSadWeJF7dsIViB+JPTM88spD5E6y7vzU3fBJ5bXvBm5WuRg7HCSwuSTPb5FK/jlhUERTeH/+YuzjLxJKLF/N+FknWzMC8yS6ZKhv/x2Y2SIzXrTJ036nOHvjBZKcV9maEdhOkvtgpdIIeG0zbM0f5YiEEukMSW7QsDUn4BMjlZO8E4+TJHk4Y67bSpK+mWC67pFrgrYUbw9D7ZxTsf/2HY3k+gP41q2fb8aeOA6/W/ienYqtOQFPBOKplVPIP46Dp9r1FTDbIwKuMP+VUPp6bgAWfWk2d38wofyT1DTT7hmbyrANj2/2WFS2ZgXc1yKVyv9SSe4ZzzZTwLNnXpZQOr9/ZvT4q2YBP449NqH884mavRrb/VcTSZRbJHnVObZmBTwn/Z2J5KEvc/do1szjOz1fSySt3dnZQ1bZmhNw3xIPn03hYsEdSv+zObp6jvTyRBLDyxR7YRS25gW8EE3sJ7RPZnf0YxtN4D2JjPY4eLTo8qkKBbw66G8SKDNc5kU9zfQqCY3T3LPCDMquRhfw45bYnw17Ahzyz+hp3vnkfyfQu9sjPFgnoJOizf12x9pUHjufHuNoMw+DOSuRVtghzeVbjtQj8PHI85A7+/1XT5z4c3SBHcoOkzHfATps9OjyyQoFPFFQKo8O96nQpZFd7Rd5wd0pcL7DmN5G8ku/g7jzaMwnsJ8Be/QL23QCXgch5vkCHHZGBEyXByb99osTmYLaFxLRzA66TgKtdjcALsxhasZJz6wGvveuiBuR7jPCypDVZRI3AlwIdhrmsf3evzoK9jSmwFsjzjfd+dzDz4Ofe8a3/r1WeXfAY3zthSZWHTOj8fHqBJzRr400H/mZv9e7YKtW4CUR9wn4m6QFquVgb2MIfDrSsqS37vyfMeLcykffngC0rzQ2bUWPg3YEPDFMb+aP5e+9OpHgd+UCMc/4tnvlGuxwVAEPDzwz4jKlU/b5zqLnywhyW1OSe712Ahvr72TnYg4y1/QP1C8jzUfv7R8d3q1Q4KBI84bvjLK1J+A5Ga6INO9016WXSFqoPcb+R/at/58mgPvZ/tHj3QYFNog0H3lef7ZmBGJdP2C9Zng4ygABd6SLuUNppyHwvwPi19rbb4600O6A+rdXKuQ5XWtZaM6BPxVhXrpS0hJzYsCLugWWlORpubvP3xhee1grW7sC7p/jibliyC+DwujVD5/RLuOjR19D0h2Rg3rGpZUfjRKvWhJYOMLJo+4tph/duCWvnA/7dEl+JjqokAzxfU8nHtzt2wwzka+gQ8wf44TpT5IWbDvtvABD7J0r7mea37az0Zzjxzh19FvmhJ4XTQvEOMRrp6aRON5cAn5kfVoCjQD3h2l1i7m3dqe1Fd0sS62meL0H/15kJ+Up9XKw9yECvgD5fmR5xv0X2NoX8CO7yyPLO506q/Pbd8DWbYvSM7XdFDkgHbfayj1zH9fPdX07vZO5Q//tNQr8+IutXYHVIht95GHGzAzYbp7pHN0djmNfa+R8SfN2ItTk76MiKqz7VSZ03Goytww/1qsiy0/vHB4lPtGQgIdf9jvHQ33Pj7rYwhDw/Ayh5pNRw+VO+I1uz5T0UMRwdNxqNLuMdLCYbuW6Aw4jRkZK1kY+5M5Ql0VUHn23ERUOMqrAFyPKO/0aBe6E7zthjWyeVcnz5PcLSCzv0XGrkawy8kEWjez2//NGjhkfbErgBRGVSb7tzGiApnLG8ON49NHvI8o//epZd2psZHtb5FDfakSJg4wj4FW7+mXqEN/zCpFsYQq4U2aIeaZfmF4YJmG2oVo7gUmCvHx2rZvHysc85t+Th7izGVtYAp+JqOBmzH9Yeac7NF7Do19lG+J7n+gOOK+DEPAkQSHmlVHDdLWkReqUPDliII/3Z5GfOnPH5Pv+cyT56vTJo8g3GxL4USR56dKGPDjMeAKfjyT/DGoUHDxedEf/tJ97DjpoDO+/Z/So8skGBXzrLYb84zBu2aALh5pM4DkR5SeGkU6WxnV+y1fQXnAnljKpN5yeG+BJVQN5nGHMnSS8ElcrYyWrTogE9+fVF3szcYh/e7ErtjgEzo0kT70yDs7sQulFm+6OJA/1Kys9O2+lW8zrcLvPgpcqZgtT4NhITjR3VGSLQ+AlkeQp325mC1Mg9gXudq6K1Z3mbo7khOrXGnp1VRDspxYBj6nvl24hvefFojz8lS0OgfkjmaX0D3FwZhlKTzMd06iS3vLyWkkeXj31dkQEBXRv5Dt/M+Rv6uSvdQfLRrI058dqVWDndQgcGUG55cnUPKU6W5gCLp+uiyAfdeq73t9TLxb0xAiX3OwgXC/JCcgWrsCLIjm5nhYuISEbIODlgjtlQci/mQ9gQAIG8vZ/RnKR0i+Pe8KpVaZxPDWSk6hf5LeZJuJ8txEBz6ffL+1Ceu+iRiQ4SB0CMfTmPqCOiLPPSgViHhr4pUkl/iOCwnlQRXHcpJHme40KfDWCPPaORkU4WJUC74ogf51YZYTZVy0Ci0ny4nGD6puQ3//3JPPfzBPxfP++9c9ztVrOg8p3enEEJ9X6lceaHTYl4Ec3IRfODtvvmsLgOFMJPEvSgxHkp375/ReS3Klx5M3LVfbbUQzveQgQW/gCXsHNszOGnKduGvfECZ89qxD6QuaWwPOYVyb1qAW28AUODTwvzVaW7joqrzNjrLc7vjJqJPlc6wKebGO2DBvC/77RuhIBmFbgmxHks8pnbpsWje/3FfBFi4duhlA2jRsG1+kjNTRjnQDBcxU8rm+y8WaIAjGsAPj6EOEI01gCb4qgwGYkwFhJ2uqH/VjpgQjyVL8Gwt7D5DxxwA2RRu5lwyLH/4MSiKGh6XUK2OIWeHIE5ZlnWmWLR+CjEeSpfg0AP9JcfDbmd0caMSb8mS1Vw/xf6CeRTxa2NAT+Hni55mfLbPEIeMGgWB+Tu47vu7nn/K2Bnyj9WjWe7GD1vjHizZAF3Gjrl56hvPeTkPEI21gCoS8ORF+TsZIziA9vFekEQbdJWqaf4GGBF8iDKoa394sM7wUv4KEpg9I0hPePDl6QAI4qEPqCU16tlC0+gWMCL8MGlaOu62dsbhHcFWFkvEQxi7TMSMpo/rg88Py2XzSSBHSYgGfbG1QYhvC+F8Rii0/AC+V53pkQ8tA4YXBdP+MuwHsjjIQX0vDkDGxxCoT+uInlf+PMV/1CHfrywO6jwBanwC4R1p1uLMzoC3BFhJHgFm2cJ4xD7bs2nqJynFZr059dK15eQt4j4HH2TeefcY7nGeY8aRFbnAI/CDx/9cuL7sT48BbDdJm9EfCY/6U7EeB3dAKer6E3TUP6242TBaJTJcCDBDyBS0j5q19YKM8GpV7473vVXM/o2C9dQ37vKab1s86QA9kvbK8NP08QwlkEnhB4nrt9lrDzrzgF7gw8z60RJyuhLgU+GHj+6lePvtVhj2GqzO7AX8DtsuhPutAnZ7kqemEi0CtwdeAFNNMB96ZYXH8vLOnPgeex7nrUr79uYvek7/1HyH9vGVe+ILR9BHzrKeQ8xgptfRIt8rdCL+c2iNyX4EvbBl6u9Za5vpiOavKfk8hlSQhsGviJ8ssklIlEt8CvAs9zT+8OLK+jFfh+4PmsuxHw8OiT0Jdk7QT4Hkk8J4v2vJgRcN/F6aRriL/PmRFa/khBwJPthJjXOmFiSHMKuUxaJ4Jlzjt57m6Tezx9542Qf384jfxBLCTRACAbNC3gRl3I5dsWTYNwvNoEjgw8r3XOg/ss8M8IAvs3SYvVllzsuGmBZwSe585vGoTj1S4Q+iOATWoX4ABNCXhdndAXoHIjwMPpdWnghbED+uqmUo7jNCIQ+twTv21EgYM0KeCOnZ0rnxB/Pzwmu0kQjlWrQAzLnV9ige8GfmI4kPPWmlTsvGmBdQPPc16ngC0tgdCXb/WzY7Z0BDzb6R8DL+c8BYDeH3ggt08nTxCTUsDT7IZ4FdYJ0z9IqeQEQn/UuWZy4kRoh8DLOa8BpM0DDqSXjH0M+Sg5gRUDznNuBLhjLHed0sl2Maw9sVw63MSkFHDd5f5EnQuL0H5v5nD65Lgp0EBuRVZKUsDz7Id2MvSGZ9Uk5fOM1OqB5zevPeFymC09AddhvWVLCH/f2J3nPhZgIL3CElu6AncEmOe6T8yt06XPLmYvDDyveWlstnQFTg8w/x3eze3FWR4IKJBuEW/UHUBeJyfg+fa7K9zQXr8pOfF8I7RP4HmNTqdp580NA5tvx8tPz7Xc+QkBnSRfSjs/EDtJvw4ov/VrfHySVEpG4NOB5zXmnUgmqw2MiOu0fuVMG+8d1y+UK0vyMqhtBKj7mF62c6V+AeS9pAROCSCvdee73tc/TEo778icGXhe+07eyZNF7FeRdFcA+dB1/MD69Y0BBHCvLLIDkfQVdm+lG9LffyWJkhG4NvC89vFkpInIbAJ7B5APXz9bAP2/b7QYSB+bLQ+Bt7eYz0ZtaAxsKeeRREnE0ldeo6Z3W59zHwW29AU8LPBbLebHr49CvLCkNhbO8HOwRUYJIJ9JQuClLZ4Ioxb0uychnXck9oggn22XdxJlFXvXrz9vIU96Tp2R19PxYgb+wqgF5bSf81KdS2aVDYhs6OsBOE8fSzJFL+AOT9OWT3V/f4PolYnAOALLSPplg/nSdfnY9auvxpu4XeH5iLnyHyf7pPFZt0ZDX4raQxXZ4hZwX466K/Bp9u8hWZR/ceexSULv8q+JjtDfniZ/+ZmFx0PfXcNJ5B6Rb2Gq30nyTjLfCX2BFhfsaySjnV9EQl9zwvnLq7Gy5Sng+nX/mupX19mV1a+rlZ0DPUHPNK1df9dXfSdJ8j7Z8hZw63Ta/FT39xmVEm8eDaHX9bD8eXK8vIS8IoHHS/JQ0CrqV+/Dd9VrWVzKy7geI+m2CQpuf+eoovL3PtgQsMAHJshHwwrUqv//U5IqWgH3Lao6P1S9v/dFq0vAqxZ4iiT3WfFcOOPmM0+t/oXisX0j/UkWlPTiolfhR8sRA9f3CfANks6SdISkF0ly70c2BLoFXtYn34yb8ev+vFvUPAboTrU4Xnt68yquqOrOXyx3Hkd+ajKUi0p6iSTPleJGrJcn782HN0v6mSTPIeE81Hr96kaBRw/4x8822BAYJuDHQL0ZO8S/H143e1hk+H9QAu+PJG95BlY2BIYJzN9Vv9JpdJgW/49G4JoICmov1kKjNpos9XBAL4sgXzHKJK48RWgRQKBiga9FUFD7rsRmFceb3dUnsHkkeYpFz+rLA+wZAQQiEPBQlRBv+/eGySNX2OIQaGL+kt78McnfQ+dlj4ObUCKAAAKTCcQwI6ALdw9fXWeyKPKtBgU8yij0CaY6jYX1G3ThUAgggEBwAvNIuimSuwDHB6dHgHoFQlp3vVPR9/vtkVP0K+lNPf5GAIHsBGIptO+va4KN7FK8ngh7QpUHImlMesw2GwIIIJC9wG6RFNq+kvtc9qkVLsDREeWjHcNlJGQIIIBAcwJLS/KiKP1ulYb2nq8wN2yOhiONKLCeJN+hCS2/9AuP89DYq7ON6MDHEEAAgegEYpi2tVOY/4Tnt0HlLz9LPyeSyt956Oyg9AgMAggg0LLAPhEV4C7EX9GyF4d/VOBVkeWdNzwadF4hgAACCKwQ0WMANwBu5DZuEJl2CUn91iLp3K0J7bcfdS0XhByBQAABBAIS8Mp7oRXYs4Xn0wHZ5RoUd8qcLY1C+9//5ZpQxBsBBBCYTSCG9du7KxSvNrftbBHif7UKeMW0GFb8684ze9Yqws4RQACBSAWWkXRPZFd0txZreK8eqXfMwV5V0i2R5ZW7yxXdYnYn7AgggEBtAl+NrFD31d0vJHm5TrZmBOYr10nvvrKO4fUJzfBwFAQQQCBOgedG2ABw5XNwnNxRhvqwSPPIFlFqE2gEEECgIQGP6b48wgLeC9Awu1v9mWSXCJ/7u4H4J+aOqD9zcAQEEIhfYL8IGwAu5O+V5DsYbPUIPL80juF2f28Y31oPCXtFAAEE0hJ4rKTbIm0E3C5po7SSI4jYePrlf0acJzxfARsCCCCAwAgCR0Ra2PvK72ZJTxwhjnxkNAGv8ndDxPnhkNGiyacQQAABBCywWkRLu/be7vXfVzA8sJKMvEYx7fKVEVf+90lauRIJdoIAAghkJBDjkMDuxsDfJK2fUXpVHdUNJF0XceXvvMDQv6pzBftDAIEsBHwbPZZlgrsr/u7Xfm7N8K/xs+szIpzopzvd/dp590njR51vIIAAAghY4MuRXwG6IvDogJeSnCMLbCfJs+b1Vqix/f3FkWPMBxFAAAEE5hJYO/K+AJ1K6wFJ+zMWfK707X7Dc0AcmEh631/c/l+zO3K8RgABBBAYX+ALCVwNdhoCp0paenyC5L+xrKTvJ5TOn08+xYggAggg0ICAe1HflVDlcI2kzRtwi+UQm0i6KqH0vVPSSrHgE04EEEAgdIH3JVRB+G6AbxG/K/NFhLyA0nsSueXfucPj305XNgQQQACBigQWlnR1Yo0AVxaXFSvbbV2RUUy7eXaxdsLFCabnnyUtFFNCEFYEEEAgBoFdE6wwOleOJ0laPoZEmDKMK0g6MdIFfTppNdvvHab04esIIIAAAn0E3Ev8xwk3AjxnwNslLdon7rG/tZikAyJe42G2Sr/zv9NjTyTCjwACCIQs4KFVKXUI7FQe3b//XiTAQZKWCjkhRgzb4sUiPvtGPpd/d9oMev2v4s6G1yxgQwABBBCoUcBXkoMK4pTe9x2BD0ryELnYNof5Q4lf8XfntbfFlkCEFwEEEIhRYD5Jv8mkEeBKxjMJev6AnSQtEHCCzVt2aPQz/hRm8uuu4Gd7/auiseO4syGAAAIINCDghWLuyagR0KmA/Hjgk5I2Le4OzNOA87BDOAyet/9TCczd3zEe57cbOusOQ+L/CCCAAALVCrw1wwZAd+XkxoDvDHj63I0bnGbYz7r3Kio+j1xwGLrDlNvrN1WbpdkbAggggMAoAh4VcEbmFVB3hevlh79ewLkD4W6SNpLk3veTbv6u9+F9faDct4/RfcycX5/WYKNr0jTkewgggECyAitKuplKadZK2VMPnyfpe5KOKx8hHFJMWNP948cK/t8pkn4myd/JuXIfFvcbJS2X7FlFxBBAAIFIBJ5frr0+rNDm/1TqVeSBByV/tQwAAAW/SURBVItG0gsiOTcIJgIIIJC8wLu5YuWKvaE8sF/yZxMRRAABBCIScH+AbzZUAVRxFck+4rwb8R2e+0dUKhBUBBDIRmAJSX+iEcCdgJrygBcv8syGbAgggAACAQp4quCbaqoAuGqP86q9inTzcMe1AszvBAkBBBBAoEtgk2LhGc/NXkXBzz5w9GQ/z+zKX7xEAAEEEAhYYEdJD9EIoBE0ZR5wHmKJ34BPdIKGAAII9BPwKnRcwWMwTR7Yu1/G4j0EEEAAgfAF3ksjgEbQhHngneFnb0KIAAIIIDCbwEcmrACmuXLku3HfefjwbBmK/yGAAAIIxCPg1eqolDEYJQ98Ip5sTUgRQAABBIYJeKKgw2kE0AgakgcOHZaR+D8CCCCAQJwCXjp3lKtAPpOfkxdHYkMAAQQQSFjgAEn/piFAQ6jMA84Lb004vxM1BBBAAIEugZ0l3UMjIPtGwL2Sdu/KF7xEAAEEEMhAYHNJnuKV2/15Gtwq6TkZ5HOiiAACCCDQR2BdSX+hEZBdI+gqSev0yQ+8hQACCCCQkcCyks6kEZBNI+BsSctllL+JKgIIIIDALALzSnIvcDoHpvs4wGnrNHZasyGAAAIIIDBDwJ0D7+RuQHJ3A25nUZ8Z+Zw/EEAAAQT6CKwp6Wc0ApJpBPxS0lp90pm3EEAAAQQQmEtgvuKdgyQ9SEMg2oaAl/I9UtL8c6UubyCAAAIIIDBEYCtJV9MIiK4R4F7+Ww5JW/6NAAIIIIDArAKLlJ3HuBsQfgdBX/UfJWmxWVOUfyKAAAIIIDCGwNMkXcDdgGDvBlwkadMx0pOPIoAAAgggMLLAApLeIekOGgLBNARuK0Zu7Mez/pHzMB9EAAEEEJhCYJmygxmPBdp7LODb/SdKWn6KdOSrCCCAAAIITCSwsaSfcDeg8bsBP5bkRzJsCCCAAAIItCqwBQ2BRhoBP5e0daspzcERQAABBBDoI7CtpF9zR6DyxoAn89mmjzdvIYAAAgggEJSA7wicytoCUzUEPHe/F2naLqiUJTAIIIAAAgiMILCepC8UIwfu5q7AyI0BWx0ryUs1syGAAAIIIBC1wBKS9pL0WxoCAxsCl0g6UJJHWLAhgAACCCCQnMAziqFrn5P0dxoDuknSZyRtklwqEyEEEEAAAQQGCHhdevcV8II1N2fUGPhnOX7fz/ZZqGdA5uBtBBBAAIE8BDzD4PMkHS7p4gQbA56m9zBJz6XSzyNDE0sEEEAAgckEVpP0OkknSLoywgbBFZKOl/TaokPfKpMR8C0EEEAAAQQQWEHSy8qr6B9Kui6gRoHDcoakQyW9lKl5yawIIIAAAgjUK+De8n5s8MayYXByOQnRLTU0Dtxh0RMcnVQey8f0semxX28as3cEEEAAAQTGElhQ0kqSNiifu+9UDkP0UMR9y+F2HnLX+fF7/p9/diymNd6q/K734X2xIYAAAggggAACCCCAAAIIIIAAAggggAACCCCAAAIIIIAAAggggAACCCCAAAIIIIAAAggggAACCCCAAAIIIIAAAggggAACCCCAAAIIIIAAAggggAACCCCAAAIIIIAAAggggAACCCCAAAIIIIAAAggggAACCCCAAAIIIIAAAggggAACCCCAAAIIIIAAAggggAACCCCAAAIIIIAAAggggAACCCCAAAIIIIAAAggggAACCCCAAAIIIIAAAggggAACCCCAAAIIIIAAAggggAACCCCAAAIIIIAAAggggAACCCCAAAIIIIAAAggggAACCCCAAAIIIIAAAggggAACCCCAAAIIIIAAAggggAACCCCAAAIIIIAAAggggAACCCCAAAIIIIAAAggggAACCCCAAAIIIIAAAggggAACCCCAAAIIIIAAAggggAACCCCAAAIIIIAAAggggAACCCCAAAIIIIAAAggggAACCCCAAAIIIIAAAggggAACCCCAAAIIIIAAAggEK/D/AT2sqjkxkwXNAAAAAElFTkSuQmCC;" vertex="1" parent="1">
          <mxGeometry x="341.5" y="349.5" width="19" height="19" as="geometry" />
        </mxCell>
      </root>
    </mxGraphModel>
  </diagram>
</mxfile>
